<svg width="18" height="25" viewBox="0 0 18 25" fill="none" xmlns="http://www.w3.org/2000/svg">
<path fill-rule="evenodd" clip-rule="evenodd" d="M9.52192 0.714405C9.49608 0.71102 9.47015 0.707622 9.44409 0.704224H8.12409C8.11469 0.705567 8.10513 0.70691 8.09542 0.708273C8.02624 0.717984 7.94971 0.728728 7.87319 0.74786C7.65397 0.783797 7.43475 0.814999 7.21592 0.846146C6.77048 0.909547 6.32665 0.972718 5.88773 1.07513C4.62228 1.38059 3.50955 2.00241 2.51682 2.8315C1.01137 4.08604 0.160456 5.70059 0.0295473 7.65332C-0.0359072 8.52604 0.0186382 9.39877 0.0840928 10.2715C0.149547 11.1879 0.400456 12.0497 0.924093 12.8242C1.12576 13.1219 1.30207 13.4365 1.47534 13.7457C1.4989 13.7878 1.52241 13.8297 1.54591 13.8715C1.75318 14.2533 1.92773 14.657 1.96046 15.1042C1.98091 15.4179 2.02267 15.7315 2.06443 16.0451C2.08949 16.2333 2.11455 16.4215 2.135 16.6097C2.14591 16.7842 2.21137 16.8933 2.38591 16.9806C3.38955 17.4606 4.38228 17.9624 5.375 18.4751C5.50591 18.5406 5.615 18.6715 5.69137 18.7915C5.86591 19.097 6.02955 19.4242 6.17137 19.7515C6.25864 19.9697 6.37864 20.0788 6.62955 20.0788C6.74844 20.0788 6.86227 20.1243 6.97794 20.1706C7.03208 20.1923 7.08662 20.2141 7.14228 20.2315C7.17828 20.2395 7.21282 20.2504 7.24643 20.2611C7.30447 20.2795 7.35974 20.297 7.415 20.297C7.52045 20.297 7.6259 20.2973 7.73135 20.2976C8.25863 20.2991 8.78591 20.3006 9.31319 20.2642C9.85429 20.2293 10.3954 20.1665 10.9365 20.1036C11.0718 20.0879 11.207 20.0722 11.3423 20.057C11.4077 20.046 11.495 19.9588 11.5168 19.8933C11.5719 19.7418 11.6232 19.5864 11.6746 19.4304C11.7454 19.2158 11.8165 19 11.8986 18.7915C11.9423 18.6824 12.0405 18.5515 12.1496 18.497C13.1314 17.9951 14.1132 17.5042 15.1059 17.0242C15.335 16.9151 15.4114 16.7733 15.4441 16.5333C15.4707 16.3444 15.4892 16.1539 15.5078 15.9634C15.5579 15.4495 15.6081 14.9351 15.815 14.4497C15.8395 14.3945 15.8468 14.336 15.8543 14.2759C15.8602 14.229 15.8661 14.1811 15.8805 14.1333C15.9132 14.0024 15.9459 13.8715 16.0114 13.7624C16.103 13.5922 16.2016 13.4255 16.3003 13.2588C16.4482 13.0088 16.5961 12.7588 16.7205 12.497C17.2441 11.3951 17.5059 10.217 17.5823 8.99513C17.6586 7.72968 17.5277 6.49695 17.0477 5.31877C16.6114 4.22786 15.8368 3.4315 14.9314 2.72241C13.5241 1.62059 11.9532 0.966042 10.1859 0.791496C9.96106 0.771943 9.74496 0.743629 9.52192 0.714405ZM3.16308 12.7224C3.15251 12.6084 3.14183 12.4932 3.12773 12.377C3.14256 12.2583 3.15361 12.1372 3.16473 12.0152C3.18634 11.7783 3.20823 11.5383 3.25864 11.3079C3.28853 11.1808 3.37472 11.064 3.46112 10.947C3.50085 10.8931 3.54064 10.8392 3.575 10.7842C3.58908 10.7655 3.6072 10.7487 3.62501 10.7322C3.6486 10.7104 3.67166 10.6891 3.68409 10.6642C3.89137 10.3042 4.21864 10.1188 4.61137 10.0533C5.11318 9.96604 5.615 9.99877 6.095 10.1515C6.82591 10.3915 7.175 10.9479 7.27319 11.6679C7.37137 12.3224 7.32773 12.966 7.09864 13.5879C6.79319 14.4279 6.18228 14.8424 5.30955 14.897C5.05864 14.9079 4.79682 14.897 4.54591 14.8424C3.78228 14.6788 3.41137 14.1442 3.25864 13.4242C3.20694 13.1953 3.18524 12.9613 3.16308 12.7224ZM14.6423 11.8042C14.6505 11.9324 14.6586 12.0606 14.6696 12.1915C14.6477 12.8133 14.5932 13.4133 14.2877 13.9588C13.8623 14.7006 13.2077 15.006 12.3568 14.886C11.1677 14.7224 10.6659 13.9479 10.535 12.9006C10.4696 12.3879 10.4914 11.8642 10.6768 11.3733C11.0259 10.446 11.6914 9.99877 12.7168 10.0097C13.3059 10.0097 13.8296 10.1406 14.1568 10.697C14.1786 10.7297 14.2114 10.7515 14.2441 10.7733C14.4732 10.926 14.5932 11.1442 14.615 11.417C14.6259 11.5479 14.6341 11.676 14.6423 11.8042ZM8.30244 15.2061C8.47687 14.973 8.65153 14.7396 8.82228 14.5042C9.0841 14.886 9.37864 15.3115 9.67319 15.726C9.71682 15.8024 9.77137 15.8788 9.84773 15.9333C10.2186 16.217 10.3823 16.817 10.1859 17.2424C10.0877 17.4497 9.9241 17.5588 9.70591 17.5806C9.38955 17.6133 9.07319 17.6133 8.81137 17.3733C8.32046 17.6788 7.87319 17.6679 7.43682 17.3079C7.37137 17.2533 7.33864 17.1442 7.32773 17.057C7.28409 16.7188 7.415 16.4242 7.60046 16.1624C7.82705 15.8414 8.06454 15.524 8.30244 15.2061ZM4.28283 19.2157C4.15622 19.2476 4.02551 19.2805 3.89136 19.3151C4.13136 20.1333 4.37136 20.9187 4.62227 21.6714C4.64408 21.7369 4.70954 21.8024 4.76408 21.846C4.92092 21.9832 5.08215 22.116 5.24285 22.2484C5.43984 22.4107 5.63601 22.5723 5.82227 22.7405C5.9859 22.8933 6.13863 23.0787 6.24772 23.2751C6.49863 23.7224 6.81499 24.1042 7.27317 24.3333C8.82226 25.1187 10.3495 24.4969 11.2986 23.2751C11.4841 23.0351 11.7023 22.806 11.9314 22.5987C12.1386 22.4024 12.3568 22.206 12.5968 22.0424C12.8695 21.8569 13.0114 21.606 13.0986 21.2896C13.2434 20.7466 13.4107 20.2037 13.5819 19.6482C13.6171 19.5341 13.6524 19.4194 13.6877 19.3042C13.6215 19.2869 13.5561 19.2696 13.4914 19.2526C13.3109 19.2049 13.1364 19.1589 12.9677 19.1187C12.695 19.0533 12.6295 19.0969 12.5095 19.3478L12.5095 19.3478C12.3132 19.7842 12.1168 20.2205 11.8768 20.6242C11.5495 21.1805 11.0477 21.5405 10.4041 21.6496C9.43317 21.8133 8.45135 21.7587 7.48045 21.7042C6.74954 21.6605 6.19317 21.3114 5.78954 20.7442C5.5405 20.3895 5.33323 20.0035 5.12077 19.6078C5.02611 19.4315 4.93041 19.2533 4.82954 19.0751C4.65842 19.1211 4.47538 19.1672 4.28283 19.2157Z" fill="#CC0000"/>
</svg>
