<svg width="18" height="24" viewBox="0 0 18 24" fill="none" xmlns="http://www.w3.org/2000/svg">
<path fill-rule="evenodd" clip-rule="evenodd" d="M9.52192 0.0101817C9.49608 0.00679594 9.47015 0.00339797 9.44409 0H8.12409C8.11469 0.00134306 8.10513 0.00268611 8.09542 0.00404952C8.02624 0.0137606 7.94971 0.0245043 7.87319 0.0436364C7.65397 0.0795738 7.43475 0.110776 7.21592 0.141922C6.77048 0.205323 6.32665 0.268494 5.88773 0.370909C4.62228 0.676364 3.50955 1.29818 2.51682 2.12727C1.01137 3.38182 0.160456 4.99636 0.0295473 6.94909C-0.0359072 7.82182 0.0186382 8.69455 0.0840928 9.56727C0.149547 10.4836 0.400456 11.3455 0.924093 12.12C1.12576 12.4177 1.30207 12.7323 1.47534 13.0415C1.4989 13.0835 1.52241 13.1255 1.54591 13.1673C1.75318 13.5491 1.92773 13.9527 1.96046 14.4C1.98091 14.7136 2.02267 15.0273 2.06443 15.3409C2.08949 15.5291 2.11455 15.7173 2.135 15.9055C2.14591 16.08 2.21137 16.1891 2.38591 16.2764C3.38955 16.7564 4.38228 17.2582 5.375 17.7709C5.50591 17.8364 5.615 17.9673 5.69137 18.0873C5.86591 18.3927 6.02955 18.72 6.17137 19.0473C6.25864 19.2655 6.37864 19.3745 6.62955 19.3745C6.74844 19.3745 6.86227 19.4201 6.97794 19.4664C7.03208 19.4881 7.08662 19.5099 7.14228 19.5273C7.17828 19.5353 7.21282 19.5462 7.24643 19.5569C7.30447 19.5752 7.35974 19.5927 7.415 19.5927C7.52045 19.5927 7.6259 19.593 7.73135 19.5933C8.25863 19.5949 8.78591 19.5964 9.31319 19.56C9.85429 19.5251 10.3954 19.4623 10.9365 19.3994C11.0718 19.3837 11.207 19.368 11.3423 19.3527C11.4077 19.3418 11.495 19.2545 11.5168 19.1891C11.5719 19.0376 11.6232 18.8822 11.6746 18.7262C11.7454 18.5116 11.8165 18.2958 11.8986 18.0873C11.9423 17.9782 12.0405 17.8473 12.1496 17.7927C13.1314 17.2909 14.1132 16.8 15.1059 16.32C15.335 16.2109 15.4114 16.0691 15.4441 15.8291C15.4707 15.6402 15.4892 15.4497 15.5078 15.2591C15.5579 14.7453 15.6081 14.2309 15.815 13.7455C15.8395 13.6903 15.8468 13.6317 15.8543 13.5716C15.8602 13.5247 15.8661 13.4769 15.8805 13.4291C15.9132 13.2982 15.9459 13.1673 16.0114 13.0582C16.103 12.888 16.2016 12.7213 16.3003 12.5546C16.4482 12.3046 16.5961 12.0545 16.7205 11.7927C17.2441 10.6909 17.5059 9.51273 17.5823 8.29091C17.6586 7.02545 17.5277 5.79273 17.0477 4.61455C16.6114 3.52364 15.8368 2.72727 14.9314 2.01818C13.5241 0.916364 11.9532 0.261818 10.1859 0.0872727C9.96106 0.0677199 9.74496 0.0394056 9.52192 0.0101817ZM3.16308 12.0182C3.15251 11.9042 3.14183 11.789 3.12773 11.6727C3.14256 11.5541 3.15361 11.4329 3.16473 11.311C3.18634 11.0741 3.20823 10.8341 3.25864 10.6036C3.28853 10.4766 3.37472 10.3598 3.46112 10.2427C3.50085 10.1889 3.54064 10.135 3.575 10.08C3.58908 10.0612 3.6072 10.0445 3.62501 10.028C3.6486 10.0062 3.67166 9.98487 3.68409 9.96C3.89137 9.6 4.21864 9.41455 4.61137 9.34909C5.11318 9.26182 5.615 9.29455 6.095 9.44727C6.82591 9.68727 7.175 10.2436 7.27319 10.9636C7.37137 11.6182 7.32773 12.2618 7.09864 12.8836C6.79319 13.7236 6.18228 14.1382 5.30955 14.1927C5.05864 14.2036 4.79682 14.1927 4.54591 14.1382C3.78228 13.9745 3.41137 13.44 3.25864 12.72C3.20694 12.4911 3.18524 12.2571 3.16308 12.0182ZM14.6423 11.1C14.6505 11.2282 14.6586 11.3564 14.6696 11.4873C14.6477 12.1091 14.5932 12.7091 14.2877 13.2545C13.8623 13.9964 13.2077 14.3018 12.3568 14.1818C11.1677 14.0182 10.6659 13.2436 10.535 12.1964C10.4696 11.6836 10.4914 11.16 10.6768 10.6691C11.0259 9.74182 11.6914 9.29455 12.7168 9.30546C13.3059 9.30546 13.8296 9.43636 14.1568 9.99273C14.1786 10.0255 14.2114 10.0473 14.2441 10.0691C14.4732 10.2218 14.5932 10.44 14.615 10.7127C14.6259 10.8436 14.6341 10.9718 14.6423 11.1ZM8.30244 14.5019C8.47687 14.2688 8.65153 14.0354 8.82228 13.8C9.0841 14.1818 9.37864 14.6073 9.67319 15.0218C9.71682 15.0982 9.77137 15.1745 9.84773 15.2291C10.2186 15.5127 10.3823 16.1127 10.1859 16.5382C10.0877 16.7455 9.9241 16.8545 9.70591 16.8764C9.38955 16.9091 9.07319 16.9091 8.81137 16.6691C8.32046 16.9745 7.87319 16.9636 7.43682 16.6036C7.37137 16.5491 7.33864 16.44 7.32773 16.3527C7.28409 16.0145 7.415 15.72 7.60046 15.4582C7.82705 15.1372 8.06454 14.8198 8.30244 14.5019ZM4.28283 18.5115C4.15622 18.5433 4.02551 18.5762 3.89136 18.6109C4.13136 19.429 4.37136 20.2145 4.62227 20.9672C4.64408 21.0327 4.70954 21.0981 4.76408 21.1418C4.92092 21.279 5.08215 21.4118 5.24285 21.5442C5.43984 21.7065 5.63601 21.8681 5.82227 22.0363C5.9859 22.189 6.13863 22.3745 6.24772 22.5709C6.49863 23.0181 6.81499 23.3999 7.27317 23.629C8.82226 24.4145 10.3495 23.7927 11.2986 22.5709C11.4841 22.3309 11.7023 22.1018 11.9314 21.8945C12.1386 21.6981 12.3568 21.5018 12.5968 21.3381C12.8695 21.1527 13.0114 20.9018 13.0986 20.5854C13.2434 20.0424 13.4107 19.4994 13.5819 18.944C13.6171 18.8299 13.6524 18.7152 13.6877 18.5999C13.6215 18.5827 13.5561 18.5654 13.4914 18.5483C13.3109 18.5007 13.1364 18.4546 12.9677 18.4145C12.695 18.349 12.6295 18.3927 12.5095 18.6436L12.5095 18.6436C12.3132 19.08 12.1168 19.5163 11.8768 19.9199C11.5495 20.4763 11.0477 20.8363 10.4041 20.9454C9.43317 21.109 8.45135 21.0545 7.48045 20.9999C6.74954 20.9563 6.19317 20.6072 5.78954 20.0399C5.5405 19.6853 5.33323 19.2992 5.12077 18.9036C5.02611 18.7273 4.93041 18.5491 4.82954 18.3708C4.65842 18.4169 4.47538 18.463 4.28283 18.5115Z" fill="#CC0000"/>
</svg>
