<svg width="24" height="24" viewBox="0 0 24 24" fill="none" xmlns="http://www.w3.org/2000/svg">
<g clip-path="url(#clip0_830_1382)">
<path d="M22.9965 10.6752C22.619 10.6983 22.2349 10.6785 21.8971 10.6785C20.9137 5.91225 18.0793 3.0704 13.3243 2.10656C13.3243 1.72897 13.3243 1.33151 13.3243 0.93405C13.321 0.298112 13.0263 1.62788e-05 12.3972 -0.0032959C12.1322 -0.0032959 11.8673 -0.0032959 11.5991 -0.0032959C10.9832 1.62788e-05 10.6819 0.301424 10.6819 0.917489C10.6819 1.32158 10.6819 1.72566 10.6819 2.09994C5.92034 3.07703 3.08259 5.91557 2.10908 10.6818C1.68855 10.6818 1.23822 10.6752 0.784579 10.6851C0.347493 10.695 0.0263012 11.0064 0.00974493 11.437C-0.0035001 11.8179 -0.00681135 12.2021 0.00974493 12.5863C0.0296125 12.9937 0.344182 13.2984 0.751466 13.3216C0.890539 13.3282 1.03292 13.3249 1.172 13.3282C1.4965 13.3282 1.821 13.3282 2.10577 13.3282C3.08921 18.0944 5.93027 20.933 10.6819 21.8935C10.6819 22.2512 10.6985 22.6255 10.6786 22.9965C10.6488 23.4867 10.8375 23.8245 11.3011 24.0001C11.7713 24.0001 12.2382 24.0001 12.7084 24.0001C13.172 23.8245 13.3607 23.49 13.3309 22.9998C13.3077 22.6288 13.3276 22.2512 13.3276 21.8935C18.0793 20.933 20.9236 18.0911 21.8971 13.3216C22.2415 13.3216 22.6223 13.305 23.0031 13.3249C23.4932 13.3547 23.8276 13.1659 24.0031 12.7022C24.0031 12.2319 24.0031 11.7649 24.0031 11.2945C23.8243 10.8341 23.4865 10.6454 22.9965 10.6752ZM17.2183 12.4505C17.2316 13.0102 17.5395 13.315 18.0958 13.3216C18.4369 13.3249 18.7812 13.3216 19.1256 13.3216C18.821 15.809 16.5428 18.6111 13.3342 19.1477C13.3309 19.0649 13.3243 18.9821 13.3243 18.9026C13.321 18.5913 13.3309 18.2766 13.3177 17.9653C13.3011 17.5943 13.0395 17.2763 12.6687 17.2465C12.2283 17.2134 11.7779 17.2134 11.3375 17.2465C10.9601 17.2763 10.6985 17.5976 10.6852 17.9851C10.6753 18.366 10.6819 18.7469 10.6819 19.1311C8.06934 18.7834 5.36073 16.4284 4.85742 13.3183C5.17861 13.3183 5.49318 13.3183 5.81106 13.3183C6.50312 13.3183 6.78457 13.0301 6.78788 12.3313C6.78788 12.0729 6.7912 11.8146 6.78788 11.5595C6.77795 10.9865 6.47 10.6818 5.89716 10.6752C5.56934 10.6719 5.24153 10.6719 4.91371 10.6685C4.90047 10.6685 4.88722 10.6553 4.87067 10.652C5.2614 7.93268 7.69517 5.31937 10.6819 4.85567C10.6819 5.19351 10.6819 5.52473 10.6819 5.85926C10.6852 6.47532 10.9866 6.77673 11.6024 6.78336C11.8905 6.78667 12.1819 6.78998 12.47 6.78336C13.013 6.76679 13.3177 6.45545 13.3243 5.91225C13.3276 5.56447 13.3243 5.21338 13.3243 4.86229C16.2349 5.30612 18.725 7.85981 19.1389 10.6818C18.8011 10.6818 18.4667 10.6818 18.1356 10.6818C17.5329 10.6851 17.225 10.9865 17.2183 11.586C17.215 11.8742 17.2117 12.1623 17.2183 12.4505Z" fill="#CC0000"/>
<path d="M12.0032 10.3638C11.1225 10.3638 10.3973 11.0889 10.3907 11.973C10.384 12.8638 11.1225 13.5989 12.0132 13.5922C12.8973 13.5856 13.6191 12.8571 13.6125 11.973C13.6092 11.0922 12.884 10.3638 12.0032 10.3638Z" fill="#CC0000"/>
</g>
<defs>
<clipPath id="clip0_830_1382">
<rect width="24" height="24" fill="white"/>
</clipPath>
</defs>
</svg>
