<svg width="24" height="20" viewBox="0 0 24 20" fill="none" xmlns="http://www.w3.org/2000/svg">
<path d="M9.02062 13.4022C9.10669 13.2946 9.14972 13.187 9.23578 13.101C12.0113 10.3255 16.7867 4.57155 19.5407 1.79607C20.2507 1.08606 21.0683 0.806362 22.058 1.10758C23.5426 1.5594 24.145 3.45275 23.1983 4.67912C23.0692 4.82973 22.9401 5.00185 22.7895 5.13094C19.4546 8.46582 14.1198 14.8222 10.7634 18.1571C9.62305 19.2974 8.26759 19.2974 7.14879 18.1571C5.47059 16.4789 2.81391 13.8222 1.13572 12.144C0.167526 11.1758 0.0814648 9.86339 0.920563 8.87369C1.69512 7.92701 3.15816 7.79792 4.10483 8.55096C4.25544 8.65853 4.38453 8.78762 4.51362 8.91672C5.58939 9.99248 7.66516 12.0467 8.71941 13.1225C8.80547 13.2086 8.89153 13.2731 9.02062 13.4022Z" fill="#6FCF97"/>
</svg>
