<svg width="20" height="20" viewBox="0 0 20 20" fill="none" xmlns="http://www.w3.org/2000/svg">
<path d="M2.10275 19.9915C1.37392 19.9682 0.730372 19.6348 0.319434 18.9293C-0.107012 18.1849 -0.0682442 17.4173 0.358201 16.6807C0.490012 16.4481 0.683851 16.2465 0.869936 16.0527C2.38963 14.5252 4.91708 11.9978 6.44453 10.4703C6.9175 9.99737 6.9175 9.98186 6.42903 9.49339C4.86281 7.92717 2.28884 5.3532 0.714865 3.78698C0.156609 3.22873 -0.107012 2.56967 0.0403056 1.77881C0.319434 0.266868 1.98645 -0.454213 3.32781 0.35991C3.55267 0.499474 3.76201 0.68556 3.95585 0.879398C5.46779 2.38359 7.97198 4.88778 9.48393 6.39972C10.0112 6.92696 10.0112 6.92696 10.5462 6.38421C12.1201 4.81024 14.6786 2.23627 16.2603 0.677806C17.4621 -0.508488 19.4315 -0.0510283 19.8812 1.52294C20.1061 2.31381 19.92 3.02713 19.4005 3.66293C19.2997 3.77923 19.1912 3.88778 19.0749 3.99633C17.5552 5.50827 15.0355 8.02022 13.5235 9.53991C13.0893 9.97411 13.0893 10.0129 13.5158 10.4316C15.1053 12.021 17.6947 14.6105 19.2842 16.2C19.8347 16.7505 20.0983 17.3941 19.9665 18.1694C19.7107 19.7046 18.0281 20.449 16.679 19.6271C16.4542 19.4875 16.2448 19.3014 16.0587 19.1076C14.539 17.5956 12.0271 15.076 10.5074 13.564C10.0267 13.0833 9.99566 13.0755 9.53045 13.5485C7.95648 15.1225 5.38251 17.6887 3.81629 19.2627C3.35107 19.7124 2.83159 19.976 2.10275 19.9915Z" fill="#EB5757"/>
</svg>
