<svg width="28" height="28" viewBox="0 0 28 28" fill="none" xmlns="http://www.w3.org/2000/svg">
<path fill-rule="evenodd" clip-rule="evenodd" d="M1.08148 1.08149C0.495689 1.66727 0.495688 2.61702 1.08147 3.20281L12.0416 14.163L1.08147 25.1231C0.495687 25.7089 0.495688 26.6587 1.08147 27.2444C1.66726 27.8302 2.61701 27.8302 3.20279 27.2444L14.1629 16.2843L25.1231 27.2444C25.7089 27.8302 26.6586 27.8302 27.2444 27.2444C27.8302 26.6587 27.8302 25.7089 27.2444 25.1231L16.2843 14.163L27.2444 3.20281C27.8302 2.61702 27.8302 1.66727 27.2444 1.08149C26.6586 0.495703 25.7089 0.495703 25.1231 1.08149L14.163 12.0416L3.2028 1.08149C2.61701 0.495702 1.66726 0.495703 1.08148 1.08149Z" fill="#CC0000"/>
</svg>
