<svg width="26" height="26" viewBox="0 0 26 26" fill="none" xmlns="http://www.w3.org/2000/svg">
<path fill-rule="evenodd" clip-rule="evenodd" d="M6.97448 7.13646C6.93385 7.19063 6.8526 7.25834 6.7849 7.25834C6.43065 7.26846 6.07641 7.26723 5.71085 7.26597C5.58732 7.26554 5.46249 7.26511 5.33594 7.26511C5.56615 6.18177 6.20937 5.50469 7.23854 5.15938C7.02865 4.19792 7.23177 3.33802 7.92917 2.63386C8.62656 1.92969 9.49323 1.74011 10.4615 1.93646C10.6375 1.36094 10.9286 0.853125 11.4297 0.541667C11.6885 0.376955 11.9768 0.264578 12.2649 0.152246C12.3914 0.102961 12.5178 0.0536842 12.6417 0H13.3526C13.4542 0.0270833 13.5557 0.0609375 13.6573 0.0947917C14.5172 0.331771 15.1062 0.866667 15.438 1.69271C15.4719 1.76719 15.5057 1.84844 15.5328 1.92292C17.5641 1.44896 19.2161 3.25 18.7557 5.15938C19.7714 5.49115 20.4146 6.16823 20.6583 7.26511C20.137 7.26511 19.6427 7.26511 19.1484 7.25834C19.101 7.25834 19.0401 7.18386 19.0062 7.13646C18.512 6.41875 17.6182 6.41875 17.124 7.12969C17.0766 7.19063 16.9953 7.25834 16.9344 7.25834C16.5795 7.26848 16.2247 7.26723 15.8642 7.26596C15.7431 7.26554 15.6215 7.26511 15.499 7.26511C15.5023 7.2211 15.5057 7.18047 15.5091 7.13985C15.5125 7.09922 15.5159 7.0586 15.5193 7.01459C14.5917 6.72344 13.9688 6.11407 13.6776 5.2H12.2896C12.0052 6.09375 11.3958 6.7099 10.4547 7.00782L10.475 7.23125C10.4615 7.2448 10.4479 7.25834 10.4344 7.25834C10.2834 7.25834 10.1317 7.25984 9.97973 7.26134C9.67504 7.26435 9.36935 7.26737 9.06667 7.25834C8.99219 7.25834 8.90417 7.19063 8.85677 7.12969C8.3625 6.41875 7.47552 6.42552 6.97448 7.13646ZM17.3068 4.46875C17.3068 3.86615 16.8125 3.37865 16.2031 3.38542C15.5937 3.39219 15.1198 3.87969 15.1198 4.48906C15.1266 5.09844 15.6208 5.58594 16.2234 5.57917C16.8193 5.5724 17.3135 5.06459 17.3068 4.46875ZM14.0906 2.62708C14.1042 2.03125 13.6099 1.53021 13.0073 1.52344C12.4047 1.51667 11.9036 2.00417 11.8969 2.60677C11.8833 3.20938 12.3776 3.70365 12.9802 3.71042C13.5896 3.71042 14.0839 3.22969 14.0906 2.62708ZM10.8677 4.47552C10.8677 3.86615 10.3802 3.38542 9.77083 3.38542C9.16823 3.38542 8.68073 3.87969 8.68073 4.48229C8.68073 5.07813 9.18177 5.57917 9.7776 5.57917C10.3802 5.5724 10.8677 5.0849 10.8677 4.47552ZM9.88603 22.1609C8.93812 22.6755 7.92249 22.8651 6.83916 22.6484C5.75582 22.4318 4.87561 21.8833 4.19853 21.0234C3.01363 19.5203 2.93915 17.3943 4.02926 15.8099C4.57093 15.0177 5.29541 14.449 6.19593 14.1307C7.47562 13.6771 8.72145 13.8125 9.92666 14.4625C10.3871 13.4536 11.0032 12.5734 11.7751 11.788C11.7523 11.7728 11.7316 11.7581 11.7124 11.7445L11.7123 11.7444C11.6629 11.7094 11.6226 11.6807 11.5787 11.6661C11.3553 11.5849 11.2944 11.4292 11.3079 11.1989C11.3224 10.8362 11.3197 10.4735 11.3169 10.1108C11.3158 9.9657 11.3147 9.8206 11.3147 9.67551C11.3147 9.09999 11.01 8.7953 10.4412 8.78853H4.95686C4.37457 8.78853 4.06988 9.09322 4.06988 9.68905C4.06988 9.86961 4.06913 10.0502 4.06838 10.2307C4.06687 10.5918 4.06537 10.9529 4.06988 11.3141C4.06988 11.4562 4.02249 11.5375 3.90061 11.612C1.1178 13.325 -0.202516 15.8167 0.0412338 19.0802C0.271442 22.1203 2.59384 24.8896 5.53916 25.6885C5.88972 25.782 6.25319 25.8465 6.61621 25.9108L6.61625 25.9108L6.61638 25.9109C6.77916 25.9397 6.94184 25.9686 7.10322 26H8.32197C8.44609 25.9774 8.57021 25.9564 8.69433 25.9353C8.94261 25.8932 9.19088 25.851 9.43916 25.7969C10.272 25.6141 11.0438 25.2891 11.748 24.8354C11.6366 24.6956 11.5238 24.5587 11.4117 24.4225L11.4117 24.4225C11.1761 24.1365 10.9434 23.8539 10.7324 23.5557C10.5204 23.2495 10.3313 22.9235 10.1401 22.5939C10.0565 22.4498 9.97252 22.3051 9.88603 22.1609ZM25.9531 17.5568C25.6417 14.9365 24.3484 12.9526 22.0802 11.6052C21.9516 11.5307 21.9109 11.4495 21.9109 11.3073C21.9177 10.7588 21.9177 10.2104 21.9109 9.6552C21.9042 9.09999 21.5995 8.78853 21.0443 8.78853H15.5396C14.9708 8.78853 14.6729 9.09999 14.6662 9.67551C14.6662 9.80564 14.6657 9.93619 14.6653 10.0669V10.067C14.664 10.4601 14.6628 10.8551 14.6729 11.2463C14.6797 11.4427 14.612 11.5375 14.4495 11.6391C12.1406 13.0338 10.8271 15.0854 10.6172 17.7734C10.3193 21.5448 12.8854 24.9573 16.5891 25.8036C16.8869 25.8686 17.1848 25.9163 17.4827 25.964L17.4828 25.964C17.5573 25.9759 17.6318 25.9878 17.7063 26H18.925C19.0432 25.9782 19.1614 25.9578 19.2794 25.9375C19.601 25.8821 19.9216 25.8269 20.2386 25.7427C22.5609 25.1062 24.2333 23.6844 25.2761 21.5177C25.2981 21.4682 25.3156 21.4186 25.3396 21.3509L25.3396 21.3508L25.3573 21.301C24.7682 21.4635 24.1995 21.5109 23.6307 21.3755C23.062 21.2401 22.5677 20.9557 22.1344 20.5495C22.0833 20.6169 22.0341 20.6849 21.9852 20.7524L21.9852 20.7525C21.8721 20.9088 21.761 21.0624 21.6333 21.1995C20.3537 22.5875 18.7896 23.0818 16.9886 22.5266C15.1943 21.9714 14.1313 20.6917 13.8943 18.8229C13.5896 16.4396 15.3026 14.2255 17.625 13.9208C20.0828 13.5958 22.2766 15.2073 22.6693 17.6312C22.7097 17.8602 22.7166 18.1025 22.7233 18.3382L22.7234 18.3422C22.7573 19.1682 23.3396 19.825 24.1318 19.9198C24.9646 20.0214 25.6958 19.5406 25.9328 18.7281C25.9432 18.6919 25.9575 18.6596 25.9727 18.6252L25.987 18.5927V17.6786C25.9834 17.6533 25.9759 17.6318 25.9687 17.6111C25.9624 17.5931 25.9563 17.5757 25.9531 17.5568Z" fill="#BDBDBD"/>
</svg>
