<svg width="45" height="45" viewBox="0 0 45 45" fill="none" xmlns="http://www.w3.org/2000/svg">
<path d="M32.5872 2.06896C30.1045 1.24138 27.4148 0.724136 24.7251 0.724136C19.4493 0.724136 14.4838 2.48276 10.5527 5.37931" stroke="white" stroke-width="1.5" stroke-linecap="round" stroke-linejoin="round" stroke-dasharray="2 2"/>
<path d="M32.5872 2.06896C30.1045 1.24138 27.4148 0.724136 24.7251 0.724136C19.4493 0.724136 14.4838 2.48276 10.5527 5.37931" stroke="url(#paint0_linear_941_1338)" stroke-width="1.5" stroke-linecap="round" stroke-linejoin="round" stroke-dasharray="2 2"/>
<path d="M32.6893 8.48277C30.2065 7.34483 27.5168 6.6207 24.6203 6.6207C19.4479 6.6207 14.6893 8.68966 11.3789 12.1035" stroke="white" stroke-width="1.5" stroke-miterlimit="10" stroke-linecap="round" stroke-linejoin="round"/>
<path d="M32.6893 8.48277C30.2065 7.34483 27.5168 6.6207 24.6203 6.6207C19.4479 6.6207 14.6893 8.68966 11.3789 12.1035" stroke="url(#paint1_linear_941_1338)" stroke-width="1.5" stroke-miterlimit="10" stroke-linecap="round" stroke-linejoin="round"/>
<path d="M6.62056 20.069C6.10331 21.8276 5.79297 23.5862 5.79297 25.4483C5.79297 35.7931 14.1723 44.2759 24.6206 44.2759C34.9654 44.2759 43.4481 35.8965 43.4481 25.4483C43.4481 22.0345 42.5171 18.7241 40.8619 15.931" stroke="white" stroke-width="1.5" stroke-miterlimit="10" stroke-linecap="round" stroke-linejoin="round"/>
<path d="M6.62056 20.069C6.10331 21.8276 5.79297 23.5862 5.79297 25.4483C5.79297 35.7931 14.1723 44.2759 24.6206 44.2759C34.9654 44.2759 43.4481 35.8965 43.4481 25.4483C43.4481 22.0345 42.5171 18.7241 40.8619 15.931" stroke="url(#paint2_linear_941_1338)" stroke-width="1.5" stroke-miterlimit="10" stroke-linecap="round" stroke-linejoin="round"/>
<path d="M12.1036 14.7931L16.8623 16.6552C18.0002 17.069 18.5174 18.3103 18.2071 19.3448L17.0692 23.2759C16.7588 24.4138 17.3795 25.5517 18.414 26.069L21.0002 27.1035C21.8278 27.4138 22.345 28.1379 22.4485 29.069L22.9657 36.7241C23.0692 38.069 22.0347 39.1034 20.6899 39.1034H20.0692C19.1381 39.1034 18.414 38.5862 18.0002 37.7586L15.9312 33.2069C15.5174 32.3793 14.7933 31.8621 13.8623 31.8621H12.2071C11.483 31.8621 10.8623 31.5517 10.4485 30.931L6.31055 25.4483" stroke="white" stroke-width="1.5" stroke-miterlimit="10" stroke-linecap="round" stroke-linejoin="round"/>
<path d="M12.1036 14.7931L16.8623 16.6552C18.0002 17.069 18.5174 18.3103 18.2071 19.3448L17.0692 23.2759C16.7588 24.4138 17.3795 25.5517 18.414 26.069L21.0002 27.1035C21.8278 27.4138 22.345 28.1379 22.4485 29.069L22.9657 36.7241C23.0692 38.069 22.0347 39.1034 20.6899 39.1034H20.0692C19.1381 39.1034 18.414 38.5862 18.0002 37.7586L15.9312 33.2069C15.5174 32.3793 14.7933 31.8621 13.8623 31.8621H12.2071C11.483 31.8621 10.8623 31.5517 10.4485 30.931L6.31055 25.4483" stroke="url(#paint3_linear_941_1338)" stroke-width="1.5" stroke-miterlimit="10" stroke-linecap="round" stroke-linejoin="round"/>
<path d="M33.1043 13.9655L31.4492 15.1034C30.6216 15.7241 30.2078 16.8621 30.6216 17.7931L31.2423 19.3448C31.5526 20.069 31.4492 21 30.9319 21.6207L28.3457 24.7241C27.8285 25.3448 27.725 26.069 27.9319 26.7931C28.2423 27.931 29.4837 28.6552 30.6216 28.3448L36.2078 26.8965C36.725 26.7931 37.2423 26.7931 37.6561 27L42.9319 29.2759" stroke="white" stroke-width="1.5" stroke-miterlimit="10" stroke-linecap="round" stroke-linejoin="round"/>
<path d="M33.1043 13.9655L31.4492 15.1034C30.6216 15.7241 30.2078 16.8621 30.6216 17.7931L31.2423 19.3448C31.5526 20.069 31.4492 21 30.9319 21.6207L28.3457 24.7241C27.8285 25.3448 27.725 26.069 27.9319 26.7931C28.2423 27.931 29.4837 28.6552 30.6216 28.3448L36.2078 26.8965C36.725 26.7931 37.2423 26.7931 37.6561 27L42.9319 29.2759" stroke="url(#paint4_linear_941_1338)" stroke-width="1.5" stroke-miterlimit="10" stroke-linecap="round" stroke-linejoin="round"/>
<path d="M40.2413 4.96552C37.2413 3.93104 33.8275 5.58621 32.7931 8.58621C32.4827 9.62069 32.3793 10.7586 32.5862 11.6897L34.6551 21L41.9999 14.8966C42.8275 14.2759 43.4482 13.3448 43.7586 12.3103C44.9999 9.31035 43.3448 6 40.2413 4.96552Z" stroke="white" stroke-width="1.5" stroke-miterlimit="10" stroke-linecap="round" stroke-linejoin="round"/>
<path d="M40.2413 4.96552C37.2413 3.93104 33.8275 5.58621 32.7931 8.58621C32.4827 9.62069 32.3793 10.7586 32.5862 11.6897L34.6551 21L41.9999 14.8966C42.8275 14.2759 43.4482 13.3448 43.7586 12.3103C44.9999 9.31035 43.3448 6 40.2413 4.96552Z" stroke="url(#paint5_linear_941_1338)" stroke-width="1.5" stroke-miterlimit="10" stroke-linecap="round" stroke-linejoin="round"/>
<path d="M40.965 11.3793C40.7581 11.8965 40.5512 12.3103 40.1374 12.6207C39.4133 13.2414 38.4822 13.4483 37.5512 13.1379C36.6201 12.8276 35.9995 12.1034 35.7926 11.1724C35.6891 10.6552 35.6891 10.2414 35.896 9.72413C36.4133 8.27586 37.8615 7.55172 39.3098 8.06896C40.6546 8.37931 41.3788 9.93103 40.965 11.3793Z" stroke="white" stroke-width="1.5" stroke-miterlimit="10" stroke-linecap="round" stroke-linejoin="round"/>
<path d="M40.965 11.3793C40.7581 11.8965 40.5512 12.3103 40.1374 12.6207C39.4133 13.2414 38.4822 13.4483 37.5512 13.1379C36.6201 12.8276 35.9995 12.1034 35.7926 11.1724C35.6891 10.6552 35.6891 10.2414 35.896 9.72413C36.4133 8.27586 37.8615 7.55172 39.3098 8.06896C40.6546 8.37931 41.3788 9.93103 40.965 11.3793Z" stroke="url(#paint6_linear_941_1338)" stroke-width="1.5" stroke-miterlimit="10" stroke-linecap="round" stroke-linejoin="round"/>
<path d="M2.68977 10.0345C0.413912 12 0.103567 15.5172 2.17253 17.7931C2.89667 18.6207 3.72426 19.1379 4.65529 19.4483L13.2415 22.1379L11.7932 13.2414C11.5863 12.3104 11.1725 11.3793 10.5518 10.5517C8.37943 8.27587 4.96564 8.06897 2.68977 10.0345Z" stroke="white" stroke-width="1.5" stroke-miterlimit="10" stroke-linecap="round" stroke-linejoin="round"/>
<path d="M2.68977 10.0345C0.413912 12 0.103567 15.5172 2.17253 17.7931C2.89667 18.6207 3.72426 19.1379 4.65529 19.4483L13.2415 22.1379L11.7932 13.2414C11.5863 12.3104 11.1725 11.3793 10.5518 10.5517C8.37943 8.27587 4.96564 8.06897 2.68977 10.0345Z" stroke="url(#paint7_linear_941_1338)" stroke-width="1.5" stroke-miterlimit="10" stroke-linecap="round" stroke-linejoin="round"/>
<path d="M8.17283 12.5173C8.48317 12.931 8.69007 13.3448 8.79352 13.7586C8.89696 14.5862 8.69007 15.5173 7.96593 16.1379C7.24179 16.6552 6.31076 16.8621 5.48317 16.5517C5.06938 16.4483 4.65558 16.1379 4.34524 15.8276C3.4142 14.7931 3.51765 13.1379 4.55214 12.2069C5.58662 11.2759 7.24179 11.4828 8.17283 12.5173Z" stroke="white" stroke-width="1.5" stroke-miterlimit="10" stroke-linecap="round" stroke-linejoin="round"/>
<path d="M8.17283 12.5173C8.48317 12.931 8.69007 13.3448 8.79352 13.7586C8.89696 14.5862 8.69007 15.5173 7.96593 16.1379C7.24179 16.6552 6.31076 16.8621 5.48317 16.5517C5.06938 16.4483 4.65558 16.1379 4.34524 15.8276C3.4142 14.7931 3.51765 13.1379 4.55214 12.2069C5.58662 11.2759 7.24179 11.4828 8.17283 12.5173Z" stroke="url(#paint8_linear_941_1338)" stroke-width="1.5" stroke-miterlimit="10" stroke-linecap="round" stroke-linejoin="round"/>
<defs>
<linearGradient id="paint0_linear_941_1338" x1="21.57" y1="0.724136" x2="21.57" y2="5.37931" gradientUnits="userSpaceOnUse">
<stop stop-color="white"/>
<stop offset="1" stop-color="white" stop-opacity="0"/>
</linearGradient>
<linearGradient id="paint1_linear_941_1338" x1="22.0341" y1="6.6207" x2="22.0341" y2="12.1035" gradientUnits="userSpaceOnUse">
<stop stop-color="white"/>
<stop offset="1" stop-color="white" stop-opacity="0"/>
</linearGradient>
<linearGradient id="paint2_linear_941_1338" x1="24.6206" y1="15.931" x2="24.6206" y2="44.2759" gradientUnits="userSpaceOnUse">
<stop stop-color="white"/>
<stop offset="1" stop-color="white" stop-opacity="0"/>
</linearGradient>
<linearGradient id="paint3_linear_941_1338" x1="14.6417" y1="14.7931" x2="14.6417" y2="39.1035" gradientUnits="userSpaceOnUse">
<stop stop-color="white"/>
<stop offset="1" stop-color="white" stop-opacity="0"/>
</linearGradient>
<linearGradient id="paint4_linear_941_1338" x1="35.382" y1="13.9655" x2="35.382" y2="29.2759" gradientUnits="userSpaceOnUse">
<stop stop-color="white"/>
<stop offset="1" stop-color="white" stop-opacity="0"/>
</linearGradient>
<linearGradient id="paint5_linear_941_1338" x1="38.3258" y1="4.65678" x2="38.3258" y2="21" gradientUnits="userSpaceOnUse">
<stop stop-color="white"/>
<stop offset="1" stop-color="white" stop-opacity="0"/>
</linearGradient>
<linearGradient id="paint6_linear_941_1338" x1="38.4029" y1="7.90231" x2="38.4029" y2="13.2805" gradientUnits="userSpaceOnUse">
<stop stop-color="white"/>
<stop offset="1" stop-color="white" stop-opacity="0"/>
</linearGradient>
<linearGradient id="paint7_linear_941_1338" x1="7.0143" y1="8.69101" x2="7.0143" y2="22.1379" gradientUnits="userSpaceOnUse">
<stop stop-color="white"/>
<stop offset="1" stop-color="white" stop-opacity="0"/>
</linearGradient>
<linearGradient id="paint8_linear_941_1338" x1="6.26276" y1="11.6123" x2="6.26276" y2="16.6975" gradientUnits="userSpaceOnUse">
<stop stop-color="white"/>
<stop offset="1" stop-color="white" stop-opacity="0"/>
</linearGradient>
</defs>
</svg>
