<svg width="19" height="18" viewBox="0 0 19 18" fill="none" xmlns="http://www.w3.org/2000/svg">
<path fill-rule="evenodd" clip-rule="evenodd" d="M1.09433 0.61329C0.714713 0.992903 0.714714 1.60838 1.09433 1.98799L8.197 9.09066L1.09454 16.1931C0.714926 16.5727 0.714926 17.1882 1.09454 17.5678C1.47415 17.9474 2.08963 17.9474 2.46924 17.5678L9.5717 10.4654L16.6742 17.5679C17.0539 17.9475 17.6693 17.9475 18.0489 17.5679C18.4286 17.1883 18.4286 16.5728 18.0489 16.1932L10.9464 9.09066L18.0492 1.9879C18.4288 1.60829 18.4288 0.992812 18.0492 0.613199C17.6695 0.233587 17.0541 0.233587 16.6745 0.6132L9.5717 7.71596L2.46902 0.613291C2.08941 0.233677 1.47394 0.233678 1.09433 0.61329Z" fill="white"/>
<path fill-rule="evenodd" clip-rule="evenodd" d="M1.09433 0.61329C0.714713 0.992903 0.714714 1.60838 1.09433 1.98799L8.197 9.09066L1.09454 16.1931C0.714926 16.5727 0.714926 17.1882 1.09454 17.5678C1.47415 17.9474 2.08963 17.9474 2.46924 17.5678L9.5717 10.4654L16.6742 17.5679C17.0539 17.9475 17.6693 17.9475 18.0489 17.5679C18.4286 17.1883 18.4286 16.5728 18.0489 16.1932L10.9464 9.09066L18.0492 1.9879C18.4288 1.60829 18.4288 0.992812 18.0492 0.613199C17.6695 0.233587 17.0541 0.233587 16.6745 0.6132L9.5717 7.71596L2.46902 0.613291C2.08941 0.233677 1.47394 0.233678 1.09433 0.61329Z" fill="url(#paint0_linear_799_3166)"/>
<defs>
<linearGradient id="paint0_linear_799_3166" x1="0.879645" y1="0.817208" x2="17.406" y2="18.1803" gradientUnits="userSpaceOnUse">
<stop stop-color="white"/>
<stop offset="1" stop-color="white" stop-opacity="0"/>
</linearGradient>
</defs>
</svg>
