<svg width="632" height="416" viewBox="0 0 632 416" fill="none" xmlns="http://www.w3.org/2000/svg">
<g clip-path="url(#clip0_585_1755)">
<path d="M93.509 189.627C94.5361 188.599 96.4435 190.654 98.0575 190.801C99.6715 190.948 101.286 189.92 101.286 189.92C101.286 189.92 100.992 189.773 98.351 189.48C95.7099 189.333 95.5632 186.249 93.2155 187.277C90.8679 188.305 89.4006 188.599 86.4661 188.452C86.4661 189.333 85.8791 190.508 85.7324 191.682C86.4661 191.535 87.053 191.389 87.3464 191.389C88.9604 191.095 92.3352 190.508 93.509 189.627Z" fill="#E0E0E0" stroke="white" stroke-width="0.491298" stroke-miterlimit="10"/>
<path d="M94.6823 201.961C95.8561 201.08 98.2038 199.024 99.0841 199.318C99.9645 199.611 100.992 199.024 100.992 198.437C100.992 197.996 99.3776 196.381 100.698 195.94C101.579 195.647 101.872 194.619 101.872 193.885C101.432 193.591 100.845 193.444 100.551 193.591C99.5243 193.738 92.7749 194.178 92.7749 194.178C92.7749 194.178 90.7207 195.5 89.8403 195.353C88.96 195.206 89.8403 193.885 87.1992 194.619C88.5198 196.234 88.6665 197.115 91.4543 197.849C94.5356 198.73 91.1609 200.345 93.802 201.814C94.0954 201.961 94.2421 202.107 94.3889 202.254C94.3889 202.254 94.5356 201.961 94.6823 201.961Z" fill="#E0E0E0" stroke="white" stroke-width="0.491298" stroke-miterlimit="10"/>
<path d="M317.121 123.845C318.002 126.048 318.735 133.683 316.828 136.767C314.92 139.85 315.801 140.584 317.708 141.759C319.616 142.934 320.496 145.577 320.496 147.779C320.496 149.982 321.816 149.688 322.11 154.387C322.403 159.085 323.431 162.316 325.191 164.224C326.512 165.693 326.218 168.042 325.631 169.804C327.979 171.566 330.473 173.181 332.821 173.915C338.543 175.971 340.598 177.586 341.038 179.642C341.478 181.697 346.32 185.368 347.641 182.578C348.814 179.789 352.189 181.404 354.537 181.404C357.031 181.404 357.471 184.194 357.765 185.956C358.205 187.571 363.927 186.837 365.982 188.011C368.036 189.186 368.769 193.738 371.704 195.353C374.638 196.968 376.986 193.297 379.04 194.472C381.094 195.646 386.377 196.968 389.605 195.647C392.833 194.472 394.887 196.821 398.995 196.527C403.104 196.087 408.386 197.702 409.56 199.024C410.146 199.611 413.668 200.345 416.749 200.786C417.63 199.171 416.016 193.885 416.162 192.71C416.456 191.388 425.993 182.872 427.754 180.963C429.368 179.054 431.862 179.054 433.183 176.558C434.503 174.062 429.368 166.133 428.194 164.518C427.167 162.903 426.58 156.295 427.314 153.506C428.194 150.716 423.205 149.101 423.205 147.192C423.205 145.283 427.901 141.906 430.395 140.878C432.889 139.703 432.009 132.068 429.808 130.159C427.607 128.25 426.58 124.726 427.901 120.762C429.221 116.944 419.684 113.861 418.363 113.861C418.07 113.861 418.07 113.567 417.923 113.274C409.413 114.889 387.404 112.539 385.79 111.952C384.763 111.512 381.975 110.484 379.48 109.603C378.453 111.365 376.106 113.127 372.731 113.127C367.449 113.127 367.009 107.841 366.862 105.491C366.715 103.142 345.44 107.547 339.717 113.127C333.995 118.853 320.936 116.651 320.496 119.734C320.202 121.937 318.295 123.111 316.974 122.524C316.974 122.818 316.974 123.405 317.121 123.845Z" fill="#E0E0E0" stroke="white" stroke-width="0.982595" stroke-miterlimit="10"/>
<path d="M365.543 300.485C365.103 297.989 372.879 286.683 374.933 286.683C376.547 286.683 377.134 275.817 376.547 270.091C370.385 265.832 365.396 264.511 365.396 264.511C365.396 264.511 348.962 263.63 346.321 262.602C343.534 261.574 340.892 266.126 338.398 264.217C335.904 262.308 332.382 264.805 332.969 267.448C333.556 270.237 338.692 271.853 338.692 275.964C338.692 280.075 349.109 286.095 348.816 288.298C348.669 289.766 354.978 294.024 358.94 299.604C360.994 300.925 363.195 302.541 365.249 304.303C365.543 302.541 365.689 301.072 365.543 300.485Z" fill="#E0E0E0" stroke="white" stroke-width="0.982595" stroke-miterlimit="10"/>
<path d="M348.667 288.298C348.96 286.095 338.543 280.075 338.543 275.964C338.543 271.853 333.407 270.237 332.82 267.448C332.234 264.658 335.755 262.308 338.249 264.217C340.744 266.126 343.385 261.427 346.173 262.602C348.96 263.63 365.247 264.511 365.247 264.511C365.247 264.511 370.383 265.979 376.399 270.091C376.252 268.916 376.105 268.035 375.812 267.448C374.344 263.924 375.812 260.106 371.85 258.638C369.796 257.904 368.915 254.38 368.622 251.149C366.714 251.737 365.247 252.177 364.367 252.324C361.139 253.205 354.096 252.764 351.748 249.387C349.988 246.891 344.265 243.367 341.477 241.752C340.304 242.78 336.048 246.451 334.141 246.744C331.94 247.038 333.261 252.764 331.06 252.764C328.859 252.764 327.245 256.582 326.658 258.197C326.071 259.812 321.229 257.023 319.028 257.904C317.414 258.491 312.865 259.225 310.371 259.519C310.811 262.015 310.665 264.805 312.572 264.805C315.8 264.805 321.963 264.511 322.109 268.769C322.256 273.174 330.179 282.865 333.114 286.095C336.048 289.326 342.651 288.592 342.945 291.381C343.385 294.171 348.08 296.667 353.509 297.108C354.976 297.255 356.737 298.136 358.644 299.31C354.83 294.024 348.374 289.766 348.667 288.298Z" fill="#E0E0E0" stroke="white" stroke-width="0.982595" stroke-miterlimit="10"/>
<path d="M389.311 341.011C392.099 340.423 390.339 338.221 392.393 336.312C394.3 334.403 396.501 330.586 396.795 329.117C396.795 328.971 396.941 328.824 397.088 328.824C393.42 326.034 390.779 323.978 389.898 321.188C389.018 318.252 389.898 312.525 391.219 308.414C389.018 306.946 382.562 302.394 380.508 302.394C378.454 302.394 375.372 306.946 374.639 311.204C379.481 313.7 381.388 315.609 378.013 318.839C374.492 322.363 373.758 333.963 377.573 337.193C381.241 340.13 382.269 346.003 385.79 347.765C386.67 344.682 387.404 341.304 389.311 341.011Z" fill="#E0E0E0" stroke="white" stroke-width="0.982595" stroke-miterlimit="10"/>
<path d="M337.077 205.778C333.849 202.107 325.632 202.107 325.632 202.107C325.632 202.107 324.752 205.778 323.578 207.834C322.551 209.596 316.682 209.596 312.867 208.568C311.84 210.036 306.851 211.064 306.117 213.12C305.237 215.616 299.221 214.294 301.128 220.755C303.036 227.362 298.047 225.16 296.14 224.279C294.232 223.398 285.722 224.572 283.521 226.775C281.32 228.977 278.239 228.39 276.332 227.362C274.424 226.334 270.609 225.747 268.995 228.39C267.381 231.18 264.3 226.188 261.805 226.481C259.311 226.775 260.485 231.914 260.485 233.089C260.485 234.117 264.3 237.494 266.794 236.319C269.289 235.144 272.223 236.613 274.424 237.934C276.625 239.256 280.733 236.906 282.054 235.438C283.374 234.117 291.151 234.117 291.885 234.117C292.765 234.117 292.912 238.522 294.379 239.403C295.7 240.284 300.982 240.724 305.677 241.018C310.372 241.311 317.269 243.514 319.323 243.514C321.524 243.514 325.045 239.696 330.034 239.696C335.023 239.696 337.664 236.613 338.544 236.906C338.837 235.438 339.424 234.117 340.598 233.97C342.652 233.676 341.185 230.299 342.652 228.537C344.12 226.775 341.479 223.398 344.12 223.691C346.761 223.985 349.549 224.279 349.549 220.608C349.549 219.287 350.282 218.259 351.163 217.378C348.375 213.413 346.321 207.099 346.321 207.099C346.321 207.099 340.305 209.449 337.077 205.778Z" fill="#CC0000" stroke="white" stroke-width="0.982595" stroke-miterlimit="10"/>
<path d="M416.457 216.056C415.576 215.763 414.403 215.028 413.522 214.294C410.148 213.56 406.773 212.532 405.746 211.505C403.692 209.449 395.475 208.274 394.301 207.834C393.127 207.393 385.351 215.175 382.856 215.175C380.362 215.175 369.797 216.35 369.797 219.287C369.797 222.223 356.739 222.517 353.07 219.287C352.484 218.699 351.897 218.112 351.456 217.378C350.429 218.259 349.842 219.433 349.842 220.608C349.842 224.279 347.055 223.985 344.414 223.692C341.772 223.398 344.414 226.922 342.946 228.537C341.479 230.299 342.946 233.676 340.892 233.97C339.865 234.117 339.278 235.291 338.838 236.906C339.718 237.347 341.772 241.605 341.772 241.605C341.772 241.605 341.626 241.752 341.479 241.899C344.267 243.514 349.989 247.185 351.75 249.534C354.244 252.764 361.14 253.205 364.368 252.471C367.597 251.59 381.536 247.185 381.536 247.185C381.536 247.185 384.764 248.359 386.818 248.8C387.258 248.947 388.579 249.094 390.339 249.387C391.366 248.359 394.448 247.478 397.676 244.248C401.491 240.43 407.213 226.628 408.974 225.6C410.588 224.426 414.99 222.076 417.19 220.314C419.391 218.552 418.951 216.937 416.457 216.056Z" fill="#E0E0E0" stroke="white" stroke-width="0.982595" stroke-miterlimit="10"/>
<path d="M365.688 187.718C363.634 186.543 357.912 187.277 357.471 185.662C357.031 184.047 356.738 181.11 354.243 181.11C351.749 181.11 348.521 179.495 347.347 182.285C346.173 185.221 341.185 181.404 340.744 179.348C340.304 177.293 338.25 175.677 332.528 173.622C330.327 172.741 327.686 171.126 325.338 169.51C325.191 169.951 324.898 170.391 324.751 170.832C323.724 172.447 319.762 169.51 318.148 171.126C316.534 172.741 310.959 173.034 308.024 175.824C304.943 178.614 298.634 179.935 295.112 180.816C291.591 181.697 294.525 184.928 295.992 187.424C297.313 189.92 297.313 195.94 300.101 197.849C302.889 199.758 311.839 205.484 313.013 207.393C313.16 207.687 313.16 207.98 312.866 208.274C316.681 209.302 322.55 209.302 323.577 207.54C324.751 205.484 325.631 201.813 325.631 201.813C325.631 201.813 333.848 201.813 337.076 205.484C340.304 209.155 346.467 206.659 346.467 206.659C346.467 206.659 346.76 207.687 347.347 209.155C348.227 207.099 349.401 205.337 350.722 205.191C354.243 204.75 359.085 204.163 362.46 199.317C364.221 196.821 367.155 194.766 369.65 193.444C368.182 191.682 367.302 188.745 365.688 187.718Z" fill="#E0E0E0" stroke="white" stroke-width="0.982595" stroke-miterlimit="10"/>
<path d="M398.849 196.381C394.74 196.821 392.686 194.325 389.458 195.5C386.23 196.674 380.801 195.5 378.894 194.325C376.839 193.15 374.345 196.821 371.557 195.206C370.97 194.912 370.383 194.325 369.943 193.738C367.449 195.059 364.514 197.115 362.754 199.611C359.379 204.603 354.39 205.044 351.015 205.484C349.548 205.631 348.521 207.393 347.641 209.449C348.814 212.386 350.869 217.084 353.216 219.287C356.884 222.517 369.943 222.223 369.943 219.287C369.943 216.497 380.508 215.175 383.002 215.175C385.496 215.175 393.273 207.393 394.447 207.834C395.621 208.274 403.837 209.449 405.891 211.505C406.919 212.532 410.293 213.56 413.668 214.294C412.201 212.973 411.027 211.358 411.027 210.036C411.027 207.834 415.135 202.107 416.456 200.933C416.603 200.786 416.603 200.639 416.749 200.492C413.668 200.052 410.147 199.317 409.56 198.73C408.239 197.555 402.81 195.94 398.849 196.381Z" fill="#E0E0E0" stroke="white" stroke-width="0.491298" stroke-miterlimit="10"/>
<path d="M52.4257 371.992C57.2677 371.111 51.1052 367.147 49.7846 365.825C48.4641 364.504 50.2248 359.071 52.8659 359.071C55.507 359.071 52.8659 355.988 49.3445 352.317C45.823 348.793 49.3445 347.471 52.4257 347.471C55.507 347.471 51.5454 342.185 54.6267 338.955C57.7079 335.871 53.7463 329.998 53.7463 327.355C53.7463 324.712 58.1481 323.831 61.8163 320.16C65.3378 316.636 58.735 317.958 58.735 315.315C58.735 312.672 54.3332 311.791 51.1052 313.993C48.0239 316.196 48.9043 313.993 46.2632 313.993C43.6221 313.993 38.6333 314.874 38.6333 312.231C38.6333 309.588 36.4324 309.148 34.2315 311.791C33.6446 312.525 32.4708 312.966 31.0035 313.259C30.7101 316.783 30.2699 320.014 31.297 321.629C33.6446 325.446 28.3624 345.856 23.6671 351.289C18.9718 356.722 23.5204 358.19 28.3624 362.154C33.3511 365.972 29.9764 379.921 29.9764 383.152C29.9764 386.382 34.3782 385.501 39.5137 385.501C42.595 385.501 45.9697 384.179 49.3445 383.592C48.3174 382.124 47.5837 380.509 47.5837 379.628C47.437 376.838 47.437 372.873 52.4257 371.992Z" fill="#E0E0E0" stroke="white" stroke-width="0.982595" stroke-miterlimit="10"/>
<path d="M196.07 163.49C198.271 161.288 202.233 162.316 204.433 164.665C206.634 166.867 210.009 167.455 213.384 170.832C214.264 171.713 215.145 172.447 216.025 173.181C216.318 170.832 216.465 166.133 217.492 163.637C218.519 161.141 216.465 157.764 218.226 157.764C219.987 157.764 225.122 157.764 225.122 154.533C225.122 151.303 226.589 152.331 227.616 150.569C228.79 148.807 224.388 145.136 223.655 143.961C222.921 142.934 226.883 142.493 229.817 138.088C230.844 136.473 230.404 133.243 229.524 129.719C229.084 131.04 228.057 131.921 226.443 130.893C223.655 129.278 219.546 130.159 213.971 131.187C208.542 132.215 206.781 137.648 208.835 139.85C210.889 142.053 203.553 143.08 202.966 140.291C202.379 137.354 196.95 139.41 197.244 143.227C197.684 147.045 191.228 148.513 191.521 153.359C191.962 158.057 185.652 162.462 181.691 164.959C181.104 165.399 180.37 165.693 179.783 166.133C181.837 167.014 183.451 167.748 184.185 167.748C187.706 167.455 193.869 165.693 196.07 163.49Z" fill="#E0E0E0" stroke="white" stroke-width="0.982595" stroke-miterlimit="10"/>
<path d="M216.905 184.781C214.411 186.103 212.21 189.039 212.65 195.353C214.998 195.353 218.373 195.5 220.867 196.234C220.28 189.48 217.639 187.424 216.905 185.956C216.612 185.515 216.759 185.222 216.905 184.781Z" fill="#E0E0E0" stroke="white" stroke-width="0.491298" stroke-miterlimit="10"/>
<path d="M173.329 170.979C173.623 172.888 176.557 177.586 177.731 175.677C178.758 173.769 181.546 178.174 184.04 179.495C186.535 180.817 191.377 182.578 191.67 184.194C191.964 185.809 192.697 189.48 195.192 188.305C197.686 187.13 200.62 183.313 200.62 185.515C200.62 187.718 201.501 191.829 204.142 191.242C206.93 190.654 207.663 195.94 210.451 195.353C210.891 195.206 211.625 195.206 212.359 195.206C212.065 189.039 214.266 186.102 216.614 184.634C217.201 183.606 218.815 182.432 219.108 181.11C219.548 179.348 215.44 175.677 215.88 173.475C215.88 173.328 215.88 173.181 215.88 173.034C215 172.3 213.973 171.566 213.239 170.685C209.864 167.308 206.49 166.721 204.289 164.518C202.088 162.316 198.126 161.141 195.925 163.343C193.724 165.546 187.562 167.308 184.187 167.308C183.453 167.308 181.839 166.721 179.785 165.693C177.144 167.161 174.356 168.629 171.568 169.217C172.302 170.245 173.182 169.804 173.329 170.979Z" fill="#E0E0E0" stroke="white" stroke-width="0.982595" stroke-miterlimit="10"/>
<path d="M490.114 261.428C487.62 261.134 484.245 259.959 485.419 258.491C485.419 258.344 485.566 258.197 485.713 258.05C482.338 255.261 481.311 246.304 483.512 244.101C486.3 241.312 478.963 230.74 475.735 226.775C474.121 224.866 470.746 218.846 467.518 212.826C464.584 213.707 462.089 214.882 461.503 215.616C460.475 217.378 456.807 219.287 454.606 219.287C452.405 219.287 450.204 218.112 448.444 220.021C446.683 221.783 444.042 222.517 443.015 221.489C441.988 220.314 438.32 219.287 435.678 219.287C433.184 219.287 425.114 217.084 423.207 217.084C422.18 217.084 420.419 217.231 418.511 217.525C418.951 218.259 418.658 219.287 417.338 220.168C415.137 221.783 410.735 224.279 409.121 225.454C407.507 226.481 401.784 240.284 397.823 244.101C394.008 247.919 390.34 248.506 390.193 249.828C389.899 251.149 394.595 254.82 394.595 257.023C394.595 259.225 395.622 261.428 398.703 261.428C401.784 261.428 398.41 268.622 400.317 269.063C402.225 269.65 413.963 270.384 413.963 273.174C413.963 275.377 415.283 277.139 414.696 278.607C418.071 279.194 420.419 283.746 421.739 283.306C423.207 283.012 433.037 285.068 434.945 284.774C436.706 284.333 445.216 284.774 448.15 285.068C451.085 285.361 454.313 284.04 456.954 281.397C459.448 278.901 468.692 278.46 471.627 278.901C474.561 279.341 480.43 280.075 481.457 281.837C482.044 282.718 485.419 284.187 488.941 285.361C489.381 283.599 488.794 281.25 488.941 278.901C489.087 275.083 491.288 269.21 495.103 268.769C498.918 268.329 501.999 268.329 501.559 262.015C501.559 261.721 501.559 261.574 501.559 261.428C499.652 259.812 497.744 258.344 497.157 258.344C495.543 258.491 491.288 261.574 490.114 261.428Z" fill="#E0E0E0" stroke="white" stroke-width="0.982595" stroke-miterlimit="10"/>
<path d="M495.249 222.517C493.782 217.818 489.086 215.909 486.445 215.909C483.951 215.909 479.549 210.036 476.614 210.477C475 210.623 471.039 211.651 467.664 212.826C470.892 218.846 474.267 224.866 475.881 226.775C479.256 230.739 486.445 241.311 483.657 244.101C481.456 246.304 482.337 255.261 485.858 258.05C487.472 255.995 492.901 249.24 492.901 247.185C492.901 244.982 493.341 240.577 497.596 241.752C501.998 242.78 505.96 244.689 505.96 243.22C505.96 241.752 504.933 237.053 503.025 235.144C501.118 233.236 496.716 227.362 495.249 222.517Z" fill="#E0E0E0" stroke="white" stroke-width="0.982595" stroke-miterlimit="10"/>
<path d="M471.479 278.901C468.544 278.607 459.447 278.901 456.806 281.397C454.312 283.893 450.937 285.361 448.002 285.068C445.068 284.774 436.704 284.333 434.797 284.774C433.036 285.068 423.059 283.012 421.591 283.306C420.271 283.599 417.923 279.047 414.549 278.607C414.402 279.047 414.108 279.341 413.521 279.782C411.027 281.397 410.734 285.802 413.521 288.298C416.309 290.794 419.831 296.227 417.336 296.227C414.842 296.227 412.934 299.457 413.228 301.219C413.521 302.834 412.348 306.505 413.228 307.239C414.108 308.12 419.831 313.553 420.124 315.168C420.418 316.637 422.765 317.371 422.619 318.692C427.167 318.399 436.998 317.811 439.199 318.839C442.133 320.307 452.404 321.042 452.404 321.042C455.339 321.042 457.833 320.014 457.1 318.105C456.513 316.49 460.328 315.609 462.969 315.315C462.528 313.553 462.235 312.232 462.822 311.938C464.142 311.351 472.212 310.323 475.441 311.938C477.055 312.819 478.962 311.938 480.429 311.057C479.989 309.589 479.549 308.267 478.668 308.12C476.614 307.827 473.533 299.31 476.174 298.723C478.669 298.136 482.043 289.326 486.005 288.151C487.619 287.711 488.353 286.683 488.646 285.508C485.125 284.333 481.75 282.865 481.163 281.984C480.283 280.075 474.413 279.341 471.479 278.901Z" fill="#E0E0E0" stroke="white" stroke-width="0.982595" stroke-miterlimit="10"/>
<path d="M396.94 328.824C397.087 328.677 397.234 328.677 397.38 328.677C397.38 328.677 397.38 328.677 397.527 328.677C397.674 328.677 397.967 328.53 398.261 328.53H398.408C399.435 328.383 400.902 328.53 402.369 328.383C402.516 328.383 402.516 328.383 402.663 328.383C402.956 328.383 403.25 328.383 403.69 328.383C403.836 328.383 403.983 328.383 404.13 328.383C404.57 328.383 405.01 328.236 405.304 328.089C408.532 327.208 409.412 323.685 411.026 324.566C412.64 325.446 421.444 320.895 422.618 319.28C422.764 319.133 422.764 318.839 422.911 318.692C423.058 317.371 420.71 316.637 420.417 315.168C420.123 313.553 414.401 307.973 413.52 307.239C413.374 307.093 413.227 306.799 413.227 306.358C413.227 306.358 413.227 306.358 413.227 306.211C413.227 305.771 413.227 305.331 413.227 304.89C404.717 306.065 391.952 308.854 391.952 308.854C391.952 308.854 391.658 308.561 391.218 308.267C389.897 312.378 389.017 318.252 389.897 321.042C390.631 323.978 393.125 326.034 396.94 328.824Z" fill="#E0E0E0" stroke="white" stroke-width="0.982595" stroke-miterlimit="10"/>
<path d="M627.746 201.52C627.746 200.492 631.561 198.437 631.267 196.381C630.974 194.178 627.746 193.885 624.077 191.976C620.556 190.067 616.888 190.801 613.66 189.186C610.432 187.571 603.536 188.599 603.536 187.571C603.536 186.543 599.134 182.872 598.107 180.963C597.08 179.055 593.411 180.082 591.211 181.551C589.01 182.872 587.102 183.46 584.901 182.138C582.7 180.817 580.793 178.614 578.885 179.348C576.978 180.229 573.456 179.642 574.19 176.852C575.07 174.062 570.669 168.042 568.761 167.308C566.854 166.427 561.131 167.895 559.664 165.106C558.344 162.316 555.849 160.113 556.876 158.204C557.903 156.296 556.583 151.01 555.262 148.807C553.942 146.605 547.046 146.898 545.138 147.779C543.231 148.66 538.829 146.898 536.921 148.073C535.014 149.248 533.84 151.156 531.199 151.156C529.732 151.156 528.705 151.01 527.824 149.688C524.89 151.01 519.901 151.303 519.901 151.303C519.901 151.303 512.565 157.177 512.565 159.379C512.565 161.582 512.271 165.252 510.364 163.344C508.603 161.582 500.826 161.435 499.066 162.609C497.158 163.637 494.37 158.204 490.996 160.113C487.768 161.875 483.366 157.617 482.926 159.379C482.632 161.288 477.79 159.673 474.562 158.351C471.334 156.883 465.465 159.085 463.264 156.589C461.063 154.093 446.831 154.093 441.989 154.093C437.293 154.093 436.119 156.589 433.919 158.792C432.011 160.847 429.663 160.407 427.316 160.26C427.463 162.169 427.903 163.784 428.343 164.518C429.37 166.133 434.652 174.062 433.332 176.558C432.011 179.055 429.517 179.055 427.903 180.963C426.289 182.872 416.605 191.389 416.311 192.71C416.018 194.032 417.925 200.198 416.605 201.226C415.284 202.254 411.176 208.127 411.176 210.33C411.176 212.532 414.257 215.616 416.605 216.35C417.632 216.644 418.365 217.231 418.659 217.818C420.566 217.525 422.327 217.378 423.354 217.378C425.115 217.378 433.185 219.58 435.826 219.58C438.32 219.58 441.989 220.608 443.162 221.783C444.336 222.811 446.831 222.077 448.591 220.315C450.352 218.553 452.553 219.58 454.754 219.58C456.955 219.58 460.623 217.672 461.65 215.91C462.677 214.148 473.682 211.211 476.616 210.77C479.551 210.477 483.953 216.203 486.447 216.203C489.088 216.203 493.783 218.112 495.251 222.811C496.718 227.509 501.12 233.383 502.881 235.291C504.641 237.2 505.815 241.899 505.815 243.367C505.815 244.836 501.853 242.927 497.452 241.899C493.05 240.724 492.756 245.129 492.756 247.332C492.756 249.534 486.594 257.169 485.42 258.638C484.246 260.106 487.621 261.134 490.115 261.574C491.142 261.721 495.544 258.638 497.011 258.638C497.598 258.638 499.359 260.106 501.413 261.721C500.973 255.995 502.147 256.288 507.282 252.471C512.565 248.506 513.151 240.871 517.847 239.99C522.542 239.109 524.596 236.907 531.639 237.934C538.535 239.109 528.118 243.367 532.96 246.01C536.041 247.772 543.524 246.891 548.366 247.185C554.675 246.157 561.131 246.304 567.587 247.479C570.815 244.542 576.978 240.577 581.086 240.284C586.809 239.696 591.357 238.081 596.786 235.585C598.987 234.557 602.949 233.529 606.91 232.795C606.323 230.152 605.59 227.216 607.204 226.922C609.111 226.628 614.834 220.315 616.741 220.315C618.649 220.315 626.865 221.93 626.865 220.608C626.865 219.287 629.653 214.588 629.066 213.12C628.479 211.798 625.838 209.889 626.278 208.421C626.865 207.1 630.68 207.1 630.68 205.338C630.68 203.429 627.746 202.548 627.746 201.52Z" fill="#E0E0E0" stroke="white" stroke-width="0.982595" stroke-miterlimit="10"/>
<path d="M424.818 77.8869C428.193 77.8869 435.969 79.5021 440.518 77.8869C444.92 76.2717 444.92 81.264 447.854 80.6767C450.642 80.0894 456.218 84.0539 459.593 86.8437C461.353 88.312 463.554 89.4867 465.902 90.955C466.489 90.074 467.222 89.193 468.25 88.312C471.184 86.1095 474.119 87.1373 476.613 87.1373C479.107 87.1373 479.548 84.2007 481.308 82.7324C482.335 81.8514 483.949 81.4109 485.123 81.1172C484.096 79.0616 484.096 75.0971 482.482 73.4819C480.575 71.5731 477.787 68.196 478.667 66.2871C479.548 64.3783 479.548 61.5885 477.347 59.386C476.32 58.3582 475.586 57.3304 475.293 56.1557C470.891 55.5684 464.875 54.981 463.554 55.4215C461.353 56.1557 452.55 49.2546 451.082 48.0799C450.055 47.3458 443.599 47.7863 437.73 48.2268C434.355 52.0444 436.85 54.6874 436.556 60.4139C436.41 66.2871 429.954 65.1125 426.432 65.1125C422.911 65.1125 417.335 54.6874 415.428 52.3381C413.52 49.9888 407.798 55.2747 403.543 57.7709C399.288 60.267 401.488 65.2593 398.554 67.6086C395.619 69.958 393.859 74.0693 396.646 79.3552C396.793 79.5021 396.793 79.7957 396.94 79.9425C400.608 79.6489 404.423 78.9147 406.771 77.4464C410.879 75.0971 421.443 77.8869 424.818 77.8869Z" fill="#E0E0E0" stroke="white" stroke-width="0.982595" stroke-miterlimit="10"/>
<path d="M404.13 98.003C405.451 99.9118 409.853 101.527 411.467 100.793C413.081 99.9118 418.363 102.702 418.363 104.904C418.363 107.107 417.042 113.714 418.363 113.714C419.537 113.714 427.46 116.21 428.047 119.441C431.569 119.587 435.677 119.734 437.144 120.028C440.079 120.762 441.839 119 443.307 117.091C444.774 115.329 449.909 114.595 451.377 114.595C452.844 114.595 452.844 110.631 453.137 108.722C453.578 106.96 457.099 103.583 459.3 102.848C461.501 102.114 461.061 99.6182 463.262 99.6182C465.463 99.6182 465.022 96.6815 464.729 94.9195C464.582 93.7449 464.729 92.4234 465.609 90.955C463.262 89.6335 461.061 88.4589 459.3 86.8437C455.925 84.0539 450.35 80.0894 447.562 80.6768C444.774 81.2641 444.774 76.2718 440.225 77.887C435.824 79.5021 427.9 77.887 424.526 77.887C421.151 77.887 410.586 75.0971 406.625 77.887C404.424 79.5021 400.462 80.0894 396.794 80.3831C399.288 85.5222 398.408 90.6614 395.62 93.8917C393.566 96.0942 394.74 96.3878 396.207 97.2688C399.582 97.122 402.957 96.5347 404.13 98.003Z" fill="#E0E0E0" stroke="white" stroke-width="0.982595" stroke-miterlimit="10"/>
<path d="M266.942 236.466C264.447 237.494 260.632 234.264 260.632 233.236C260.632 232.502 260.192 229.712 260.632 228.097C258.578 227.069 255.644 225.6 253.443 225.013C249.775 223.985 248.014 223.985 245.079 225.307C243.172 226.188 238.036 226.041 234.515 225.747C234.221 226.775 233.781 227.509 232.901 227.509C230.406 227.509 227.179 230.005 226.592 232.795C226.005 235.585 220.282 237.788 218.668 242.633C217.054 247.625 217.788 249.828 220.282 246.744C222.777 243.661 225.711 244.835 225.711 247.332C225.711 249.828 228.939 250.121 227.912 253.352C227.912 253.499 227.912 253.499 227.912 253.499C231.727 253.205 236.863 252.764 238.477 252.764C240.971 252.764 243.612 244.689 244.639 243.955C245.666 243.22 248.601 249.828 251.535 252.324C254.47 254.82 254.763 250.121 254.763 247.919C254.763 245.716 257.258 244.982 259.165 245.423C260.926 245.716 265.034 246.451 265.034 243.955C265.034 241.458 267.235 242.486 268.702 242.486C270.17 242.486 270.61 239.55 270.61 239.55L272.957 237.347C271.05 236.172 268.849 235.585 266.942 236.466Z" fill="#CC0000" stroke="white" stroke-width="0.491298" stroke-miterlimit="10"/>
<path d="M229.964 138.088C227.03 142.493 223.068 142.787 223.802 143.962C224.535 145.136 228.937 148.66 227.763 150.569C226.736 152.478 225.269 151.303 225.269 154.534C225.269 157.764 220.133 157.764 218.373 157.764C216.612 157.764 218.666 160.994 217.639 163.637C216.612 166.133 216.612 171.273 216.172 173.475C215.878 175.678 219.84 179.348 219.4 181.11C219.106 183.019 216.172 184.341 216.905 185.809C217.639 187.277 220.28 189.333 220.867 196.087C222.188 196.381 223.215 196.968 223.655 197.556C225.269 199.758 228.057 201.373 231.578 201.373C235.1 201.373 236.567 203.869 238.181 203.576C239.795 203.282 244.197 204.75 240.675 207.687C237.154 210.77 236.567 214.294 235.687 217.818C235.1 220.168 235.246 223.398 234.659 225.307C238.181 225.601 243.316 225.894 245.224 224.866C248.158 223.398 249.919 223.398 253.587 224.573C255.788 225.16 258.723 226.628 260.777 227.656C261.07 226.922 261.364 226.335 262.098 226.335C264.592 226.041 267.526 231.033 269.287 228.244C270.901 225.454 274.716 226.041 276.624 227.216C278.531 228.244 281.612 228.831 283.813 226.628C286.014 224.426 294.524 223.398 296.432 224.132C298.339 225.013 303.328 227.216 301.421 220.608C299.513 214.001 305.529 215.469 306.409 212.973C307.29 210.477 314.333 209.449 313.305 207.54C312.278 205.631 303.181 199.905 300.393 197.996C297.606 196.087 297.606 190.067 296.285 187.571C294.965 185.075 291.883 181.844 295.405 180.963C298.926 180.082 305.235 178.761 308.317 175.971C311.398 173.181 316.827 172.888 318.441 171.273C320.055 169.657 323.87 172.594 325.044 170.979C326.217 169.364 326.951 165.987 325.337 164.078C323.723 162.169 322.549 158.792 322.256 154.24C321.962 149.541 320.642 149.835 320.642 147.632C320.642 145.43 319.761 142.64 317.854 141.612C315.947 140.585 315.066 139.704 316.974 136.62C318.881 133.537 318.001 125.901 317.267 123.699C317.12 123.258 317.12 122.818 317.267 122.23C316.827 121.937 316.387 121.496 316.24 120.762C315.653 117.825 313.746 116.798 308.904 116.798C304.208 116.798 311.838 112.099 309.931 109.603C308.17 107.254 303.328 114.008 298.926 112.54C294.524 111.071 288.802 117.679 284.987 120.615C281.172 123.552 275.596 120.028 278.531 115.917C281.466 111.659 278.531 112.099 274.129 113.714C269.727 115.329 264.445 113.421 265.032 109.309C265.179 108.281 264.885 107.4 264.298 106.519C262.098 106.813 260.484 106.96 259.75 106.666C257.842 106.079 253.294 105.638 248.452 105.492C249.919 107.694 251.533 109.75 250.653 111.365C249.039 114.448 251.533 117.385 253.881 121.937C256.228 126.489 248.745 123.992 248.599 126.929C248.452 129.866 241.702 126.782 239.501 125.608C237.301 124.58 229.964 125.314 230.111 127.076C230.111 127.81 230.111 128.838 229.817 129.719C230.698 133.096 231.138 136.473 229.964 138.088Z" fill="#E0E0E0" stroke="white" stroke-width="0.982595" stroke-miterlimit="10"/>
<path d="M238.035 203.722C236.421 204.016 234.954 201.52 231.433 201.52C227.911 201.52 225.123 199.905 223.509 197.702C221.895 195.5 213.385 194.912 210.597 195.5C207.81 196.087 207.076 190.801 204.288 191.388C201.5 191.976 200.767 187.864 200.767 185.662C200.767 183.459 197.685 187.277 195.338 188.452C192.843 189.48 192.11 185.956 191.816 184.34C191.523 182.725 186.534 181.11 184.186 179.642C181.692 178.32 178.904 173.915 177.877 175.824C176.85 177.733 173.769 173.034 173.475 171.126C173.329 169.804 172.448 170.245 171.861 169.51C170.981 169.657 169.954 169.804 169.073 169.804C164.672 169.657 160.857 173.034 161.59 180.376C162.324 187.718 156.308 188.452 148.825 189.039C141.342 189.626 143.836 195.5 140.755 197.849C137.674 200.198 126.669 196.528 125.202 192.563C123.735 188.599 113.904 192.563 118.012 197.262C122.267 201.96 121.974 208.568 119.626 210.477C117.279 212.239 112.143 207.54 108.768 209.889C105.54 212.239 105.247 207.687 101.285 206.218C97.3236 204.75 95.5629 207.98 89.2536 207.54C82.7976 206.953 79.1294 210.623 81.6238 213.413C83.9714 216.203 81.3303 218.699 83.091 221.049C84.8518 223.398 93.362 223.104 99.5245 226.335C105.687 229.565 107.154 226.922 110.382 229.271C113.464 231.621 114.197 230.152 114.344 234.704C114.491 239.256 118.012 243.661 124.028 245.276C130.044 246.891 125.495 251.002 127.256 254.967C129.017 258.931 124.468 264.805 125.495 269.797C126.376 274.789 122.561 290.647 119.626 292.115C119.479 292.262 119.186 292.262 118.893 292.262C121.68 293.584 124.468 294.758 125.935 295.786C128.577 297.548 134.446 299.31 137.967 301.513C141.489 303.715 147.798 303.275 147.798 300.632C147.798 297.989 151.319 299.751 153.52 301.953C155.721 304.156 164.231 304.596 168.193 305.477C171.568 306.211 176.557 305.771 180.958 305.771C180.812 304.743 180.518 303.715 180.225 302.541C178.024 295.346 184.48 291.234 190.496 290.207C196.511 289.326 209.717 292.996 213.238 295.199C216.76 297.401 221.455 296.814 227.471 290.5C230.552 287.27 233.047 286.095 235.248 285.508C235.394 284.04 236.128 282.571 236.568 281.25C237.448 279.047 233.487 279.635 230.846 279.341C228.058 279.047 226.15 276.258 228.058 273.321C229.965 270.237 226.444 270.091 224.536 267.007C222.629 263.924 225.417 264.805 227.031 263.924C228.645 263.043 230.846 259.812 229.525 258.931C228.205 258.05 227.031 256.142 228.205 252.911C229.232 249.681 226.004 249.387 226.004 246.891C226.004 244.395 222.922 243.367 220.575 246.304C218.08 249.387 217.347 247.185 218.961 242.192C220.575 237.2 226.444 234.998 226.884 232.355C227.471 229.565 230.699 227.069 233.193 227.069C235.688 227.069 235.101 221.342 235.981 217.671C236.862 214.147 237.302 210.477 240.97 207.54C244.051 204.897 239.649 203.429 238.035 203.722ZM257.697 296.961C255.643 296.814 255.203 300.485 250.067 303.568C244.932 306.652 250.067 320.748 255.203 320.014C260.338 319.279 259.604 297.108 257.697 296.961Z" fill="#CC0000" stroke="white" stroke-width="0.982595" stroke-miterlimit="10"/>
<path d="M180.812 305.918C176.41 305.771 171.421 306.358 168.046 305.624C164.085 304.743 155.575 304.303 153.374 302.1C151.173 299.898 147.651 298.136 147.651 300.779C147.651 303.422 141.489 303.862 137.821 301.66C134.299 299.457 128.43 297.695 125.789 295.933C124.322 295.052 121.534 293.878 118.746 292.409C115.078 293.143 104.367 289.179 97.3238 290.06C89.8406 290.941 65.924 288.885 56.5335 289.766C47.1429 290.5 46.7027 285.949 41.5673 285.949C36.4318 285.949 38.6327 292.116 31.2963 292.409C23.96 292.703 23.2263 297.108 28.5085 301.366C31.5898 303.715 31.1496 308.854 30.7094 313.406C32.1767 313.259 33.3505 312.819 33.9374 311.938C36.1383 309.295 38.3393 309.735 38.3393 312.378C38.3393 315.021 43.1813 314.14 45.9691 314.14C48.6102 314.14 47.7298 316.343 50.8111 314.14C53.8924 311.938 58.4409 312.819 58.4409 315.462C58.4409 318.105 65.0437 316.783 61.5222 320.307C58.0008 323.831 53.4522 324.712 53.4522 327.502C53.4522 330.145 57.4138 336.018 54.3326 339.102C51.2513 342.185 55.2129 347.618 52.1317 347.618C49.0504 347.618 45.3822 348.94 49.0504 352.464C52.5718 355.988 55.2129 359.218 52.5718 359.218C49.9307 359.218 48.17 364.504 49.4906 365.972C50.8111 367.294 57.1204 371.258 52.1317 372.139C47.2896 373.02 47.2896 376.985 47.2896 379.775C47.2896 380.802 48.0233 382.271 49.0504 383.739C51.2513 383.298 53.5989 383.298 55.6531 384.179C60.7886 386.529 63.7231 399.303 70.6193 398.422C73.5539 398.129 72.0866 395.926 73.5539 394.458C75.0212 392.989 77.809 394.164 80.7435 394.164C83.6781 394.164 85.1454 389.906 92.0416 389.759C98.9378 389.612 103.34 389.025 107.741 389.172C112.143 389.319 115.665 387.85 116.692 384.767C117.719 381.683 121.387 378.894 126.376 378.159C131.365 377.425 130.631 372.286 130.924 369.349C131.365 366.413 139.581 362.008 140.021 359.805C140.608 357.603 135.326 349.233 140.168 341.745C145.157 334.256 150.439 333.816 150.439 329.705C150.439 325.887 155.575 324.419 161.737 323.685C167.9 322.95 169.954 318.692 175.236 316.49C180.078 314.434 181.692 311.204 180.812 305.918Z" fill="#CC0000" stroke="white" stroke-width="0.982595" stroke-miterlimit="10"/>
<path d="M172.301 351.876C176.116 356.869 183.306 343.8 180.078 343.507C173.475 342.773 168.487 346.737 172.301 351.876Z" fill="#E0E0E0" stroke="white" stroke-width="0.982595" stroke-miterlimit="10"/>
<path d="M300.247 257.023C303.182 255.848 306.557 255.407 308.171 255.995C309.638 256.582 310.078 258.05 310.372 259.665C312.866 259.372 317.561 258.638 319.028 258.05C321.229 257.169 326.218 259.959 326.658 258.344C327.245 256.729 328.859 252.911 331.06 252.911C333.261 252.911 331.941 247.185 334.141 246.891C336.342 246.597 341.771 241.752 341.771 241.752C341.771 241.752 339.57 237.347 338.69 237.053C337.81 236.76 335.169 239.843 330.18 239.843C325.191 239.843 321.67 243.661 319.469 243.661C317.268 243.661 310.372 241.458 305.823 241.165C304.209 241.018 302.448 240.871 300.834 240.724C300.394 244.835 299.954 251.149 300.247 257.023Z" fill="#E0E0E0" stroke="white" stroke-width="0.982595" stroke-miterlimit="10"/>
<path d="M463.117 315.315C460.329 315.609 456.514 316.637 457.248 318.105C457.981 319.867 455.34 321.042 452.552 321.042C452.552 321.042 442.281 320.307 439.347 318.839C437.146 317.664 427.315 318.252 422.767 318.692C422.767 318.839 422.62 318.986 422.473 319.28C421.446 320.895 412.642 325.446 410.882 324.565C409.268 323.684 408.387 327.355 405.159 328.089C401.931 328.97 396.943 327.796 396.649 329.264C396.356 330.586 394.155 334.55 392.247 336.459C390.34 338.368 391.954 340.57 389.166 341.158C387.405 341.598 386.672 344.828 385.645 347.912C385.791 348.059 385.938 348.059 386.231 348.206C390.193 349.527 393.421 354.226 392.834 358.777C392.247 363.329 398.703 364.944 401.638 361.714C404.572 358.484 412.789 363.623 412.789 365.679C412.789 367.881 404.426 363.329 399.584 366.853C394.888 370.377 403.252 373.608 402.225 377.278C401.051 380.949 404.426 386.088 408.681 385.941C412.936 385.795 417.631 392.696 420.272 391.374C422.767 390.053 417.191 380.362 418.071 378.894C418.952 377.425 424.087 381.39 426.728 378.453C429.223 375.516 424.968 373.314 421.006 373.461C417.191 373.608 420.859 368.322 425.408 371.111C429.956 373.901 432.157 370.377 434.358 369.937C436.559 369.496 437.146 361.714 430.396 359.805C423.647 358.043 424.527 364.798 420.126 360.099C415.724 355.547 424.087 357.309 424.087 353.492C424.087 349.674 417.338 344.094 413.963 339.542C410.735 334.991 418.512 332.788 420.419 336.018C422.326 339.249 427.168 338.808 430.25 337.487C433.331 336.165 427.022 330.292 432.597 328.089C438.32 325.887 438.32 329.705 440.08 330.439C441.841 331.173 443.602 325.887 449.471 325.887C452.552 325.887 455.193 327.943 457.835 329.851C459.449 328.089 460.769 327.062 460.769 325.593C460.769 323.685 464.291 322.803 464.291 319.867C464.144 318.692 463.557 316.93 463.117 315.315ZM452.846 407.673C449.911 406.058 436.706 408.701 433.331 405.47C429.81 402.24 422.767 408.113 425.848 408.554C430.25 409.288 436.852 413.105 443.895 413.252C451.085 413.399 460.769 410.022 460.476 408.113C460.329 406.351 455.78 409.288 452.846 407.673Z" fill="#E0E0E0" stroke="white" stroke-width="0.982595" stroke-miterlimit="10"/>
<path d="M60.2016 119.587C58.7343 118.413 57.267 117.238 56.0932 115.917C51.3979 110.337 49.4905 114.742 48.9036 118.119C48.3167 121.496 43.9148 116.944 41.127 116.504C38.3392 115.917 42.0074 110.631 43.9148 109.309C45.2354 108.428 46.5559 105.785 47.2896 102.261C46.7026 102.261 46.2625 102.261 45.8223 101.968C40.6868 99.9119 33.4972 99.9119 33.3504 104.464C33.2037 109.016 39.0728 107.4 39.2195 110.337C39.3663 113.274 33.3504 112.54 29.0953 115.476C24.8402 118.413 20.2917 113.42 15.8899 115.623C11.488 117.825 20.5851 120.322 17.3571 125.02C14.1291 129.572 17.5039 129.425 23.0795 133.83C28.5084 138.235 19.8515 139.263 19.8515 144.255C19.8515 149.248 13.102 148.954 11.6348 152.331C10.1675 155.561 17.5039 162.169 23.9599 162.169C28.5084 162.169 39.0728 159.232 45.3821 153.359C51.5447 147.486 54.9194 153.212 60.495 150.275C66.2174 147.339 62.696 125.901 60.495 121.496C60.0549 120.762 60.0549 120.175 60.2016 119.587Z" fill="#E0E0E0" stroke="white" stroke-width="0.982595" stroke-miterlimit="10"/>
<path d="M62.8425 99.765C58.1473 95.36 52.2782 102.261 47.2894 102.261C46.5558 105.785 45.2352 108.428 43.9147 109.309C42.0072 110.631 38.339 115.917 41.1269 116.504C43.9147 117.091 48.3165 121.496 48.9034 118.119C49.4903 114.742 51.3978 110.337 56.0931 115.917C57.2669 117.238 58.5874 118.56 60.2015 119.587C60.9351 117.091 66.8042 116.651 69.7387 113.567C73.4069 110.043 67.978 104.757 62.8425 99.765ZM162.911 145.136C163.351 139.703 151.173 135.739 149.852 138.676C148.531 141.612 145.89 141.319 143.836 137.941C141.782 134.711 145.744 131.481 143.689 131.187C141.635 130.894 139.141 126.195 139.728 124.433C140.315 122.671 136.647 110.924 130.337 109.456C124.175 107.988 123.148 99.1777 122.121 94.4791C120.947 89.7804 116.985 92.2766 113.904 88.3121C110.822 84.3476 105.54 86.2564 102.752 86.5501C99.9646 86.6969 102.752 81.411 107.154 78.4743C111.556 75.5377 116.692 59.9734 116.692 56.8899C116.692 53.8065 97.4703 53.9533 93.8021 55.7153C90.1339 57.4773 86.4657 52.9255 89.547 51.7508C92.6283 50.4293 99.231 44.1155 98.9375 41.4725C98.6441 38.9764 103.486 36.4802 100.698 34.1309C97.9105 31.7816 97.617 37.2144 95.2693 39.1232C92.9217 40.8852 87.6395 40.4447 81.9171 39.2701C76.1948 38.0954 73.9938 46.1712 74.2873 49.6952C74.434 53.2191 67.6846 55.128 68.8584 58.0646C69.8855 61.0013 67.5378 63.2037 65.7771 61.5886C64.0164 59.9734 61.9622 55.8621 58.294 58.7988C54.6258 61.7354 62.5491 65.5531 67.2444 66.1404C71.9397 66.7277 63.5762 70.1049 62.6958 75.244C61.8155 80.3831 68.8584 78.1807 69.2986 81.8515C69.7387 85.5223 59.0276 86.1096 59.0276 89.4867C59.0276 93.0107 65.0435 87.8716 67.8313 86.4033C70.6191 84.935 66.364 95.0664 72.9668 93.8917C79.5695 92.7171 77.662 83.7603 80.1564 84.2008C82.504 84.4945 79.1293 88.8994 81.0368 92.8639C83.091 96.6815 76.3415 102.555 76.6349 105.345C76.9284 108.134 90.1339 108.134 94.389 103.73C98.6441 99.3245 100.552 104.023 97.617 107.4C94.6824 110.631 96.003 113.861 99.6712 115.036C103.339 116.357 104.66 116.651 102.899 119.587C101.285 122.524 102.752 127.957 101.725 130.747C100.845 133.536 89.4002 133.096 89.1068 131.334C88.8133 129.572 83.9713 130.747 85.2919 133.39C86.6124 136.033 81.3302 138.676 81.6237 141.025C82.0639 143.374 88.8133 142.787 88.9601 145.724C89.1068 148.66 83.9713 152.184 77.0751 154.093C70.1789 156.149 78.5424 161.581 81.7704 159.232C84.9984 156.883 84.2648 160.847 89.1068 160.847C93.8021 160.847 96.7366 164.665 102.166 162.756C107.448 160.7 107.301 162.756 103.193 165.84C99.231 168.923 93.0684 165.693 89.547 167.602C85.8788 169.657 71.0593 183.606 73.8471 186.983C75.4611 189.039 77.662 184.047 82.9442 181.844C88.2264 179.642 89.1068 183.313 92.0413 183.606C94.9759 184.047 95.1226 177.586 97.4703 178.174C99.8179 178.761 102.019 176.118 106.421 176.852C110.822 177.586 113.904 175.971 116.105 174.062C118.306 172.3 124.175 177.733 125.935 176.412C127.696 175.09 135.766 173.622 139.875 173.769C143.836 173.915 154.254 169.217 157.042 166.574C159.829 164.078 155.428 163.49 151.759 164.078C148.091 164.665 148.825 160.407 152.64 156.736C156.455 153.359 162.471 150.569 162.911 145.136ZM53.0118 53.2191C58.0005 53.0723 63.5762 44.556 61.2285 42.2067C58.8809 39.8574 49.3436 53.366 53.0118 53.2191ZM123.735 13.5744C126.816 10.4909 130.484 -1.40254 125.789 -0.0810525C120.947 1.09361 122.414 14.8959 123.735 13.5744Z" stroke="white" stroke-width="0.982595" stroke-miterlimit="10"/>
<path d="M62.8425 99.765C58.1473 95.36 52.2782 102.261 47.2894 102.261C46.5558 105.785 45.2352 108.428 43.9147 109.309C42.0072 110.631 38.339 115.917 41.1269 116.504C43.9147 117.091 48.3165 121.496 48.9034 118.119C49.4903 114.742 51.3978 110.337 56.0931 115.917C57.2669 117.238 58.5874 118.56 60.2015 119.587C60.9351 117.091 66.8042 116.651 69.7387 113.567C73.4069 110.043 67.978 104.757 62.8425 99.765ZM162.911 145.136C163.351 139.703 151.173 135.739 149.852 138.676C148.531 141.612 145.89 141.319 143.836 137.941C141.782 134.711 145.744 131.481 143.689 131.187C141.635 130.894 139.141 126.195 139.728 124.433C140.315 122.671 136.647 110.924 130.337 109.456C124.175 107.988 123.148 99.1777 122.121 94.4791C120.947 89.7804 116.985 92.2766 113.904 88.3121C110.822 84.3476 105.54 86.2564 102.752 86.5501C99.9646 86.6969 102.752 81.411 107.154 78.4743C111.556 75.5377 116.692 59.9734 116.692 56.8899C116.692 53.8065 97.4703 53.9533 93.8021 55.7153C90.1339 57.4773 86.4657 52.9255 89.547 51.7508C92.6283 50.4293 99.231 44.1155 98.9375 41.4725C98.6441 38.9764 103.486 36.4802 100.698 34.1309C97.9104 31.7816 97.617 37.2144 95.2693 39.1232C92.9217 40.8852 87.6395 40.4447 81.9171 39.2701C76.1948 38.0954 73.9938 46.1712 74.2873 49.6952C74.434 53.2191 67.6846 55.128 68.8584 58.0646C69.8855 61.0013 67.5378 63.2037 65.7771 61.5886C64.0164 59.9734 61.9622 55.8621 58.294 58.7988C54.6258 61.7354 62.5491 65.5531 67.2444 66.1404C71.9397 66.7277 63.5762 70.1049 62.6958 75.244C61.8155 80.3831 68.8584 78.1806 69.2986 81.8515C69.7387 85.5223 59.0276 86.1096 59.0276 89.4867C59.0276 93.0107 65.0435 87.8716 67.8313 86.4033C70.6191 84.935 66.364 95.0664 72.9668 93.8917C79.5695 92.7171 77.662 83.7603 80.1564 84.2008C82.504 84.4945 79.1293 88.8994 81.0368 92.8639C83.091 96.6815 76.3415 102.555 76.6349 105.345C76.9284 108.134 90.1339 108.134 94.389 103.73C98.6441 99.3245 100.552 104.023 97.617 107.4C94.6824 110.631 96.003 113.861 99.6712 115.036C103.339 116.357 104.66 116.651 102.899 119.587C101.285 122.524 102.752 127.957 101.725 130.747C100.845 133.536 89.4002 133.096 89.1068 131.334C88.8133 129.572 83.9713 130.747 85.2919 133.39C86.6124 136.033 81.3302 138.676 81.6237 141.025C82.0639 143.374 88.8133 142.787 88.9601 145.724C89.1068 148.66 83.9713 152.184 77.0751 154.093C70.1789 156.149 78.5424 161.581 81.7704 159.232C84.9984 156.883 84.2648 160.847 89.1068 160.847C93.8021 160.847 96.7366 164.665 102.166 162.756C107.448 160.7 107.301 162.756 103.193 165.84C99.231 168.923 93.0684 165.693 89.547 167.602C85.8788 169.657 71.0593 183.606 73.8471 186.983C75.4611 189.039 77.662 184.047 82.9442 181.844C88.2264 179.642 89.1068 183.313 92.0413 183.606C94.9759 184.047 95.1226 177.586 97.4703 178.174C99.8179 178.761 102.019 176.118 106.421 176.852C110.822 177.586 113.904 175.971 116.105 174.062C118.306 172.3 124.175 177.733 125.935 176.412C127.696 175.09 135.766 173.622 139.875 173.769C143.836 173.915 154.254 169.217 157.042 166.574C159.829 164.078 155.428 163.49 151.759 164.078C148.091 164.665 148.825 160.407 152.64 156.736C156.455 153.359 162.471 150.569 162.911 145.136ZM53.0118 53.2191C58.0005 53.0723 63.5762 44.556 61.2285 42.2067C58.8809 39.8574 49.3436 53.366 53.0118 53.2191ZM123.735 13.5744C126.816 10.4909 130.484 -1.40254 125.789 -0.0810525C120.947 1.09361 122.414 14.8959 123.735 13.5744Z" fill="#CC0000" stroke="white" stroke-width="0.982595" stroke-miterlimit="10"/>
<path d="M269.876 74.6567C268.115 73.7757 267.382 67.9024 269.436 65.9936C271.637 64.2316 272.517 57.1836 270.756 55.4216C268.996 53.6596 262.393 55.4216 261.806 60.4139C261.219 65.4063 255.937 63.2038 254.47 64.2316C253.002 65.2594 257.404 67.4619 255.056 69.6644C252.709 71.8669 251.828 66.4341 247.867 65.9936C244.052 65.5531 243.612 71.8669 241.704 74.9504C239.65 78.0338 240.971 84.6413 241.704 89.0463C242.438 93.4512 247.72 96.2411 246.4 99.9119C245.813 101.674 246.986 103.583 248.307 105.345C253.149 105.492 257.698 105.785 259.605 106.519C260.339 106.813 262.099 106.666 264.154 106.372C262.54 103.73 258.871 101.674 259.165 99.765C259.605 97.2689 262.98 98.884 265.621 101.087C268.115 103.289 273.838 103.583 274.424 100.94C274.718 99.1777 273.544 91.3956 270.023 93.3044C266.501 95.0664 265.621 94.3322 264.3 92.5702C262.98 90.8083 266.795 87.8716 267.822 84.935C268.702 81.9983 274.718 83.0261 275.745 80.6768C276.625 78.1807 271.783 75.5377 269.876 74.6567ZM297.461 85.8159C295.993 84.9349 294.966 88.3121 293.206 88.7526C291.592 89.1931 289.684 81.8515 288.95 85.8159C288.217 89.7804 284.549 84.2008 280.88 89.3399C277.212 94.4791 283.081 99.0309 285.576 100.646C288.07 102.261 285.429 104.611 282.054 103.876C278.826 103.142 280.734 108.575 285.282 109.309C289.831 110.043 294.82 101.233 294.233 99.0309C294.086 96.9752 299.221 86.9906 297.461 85.8159Z" fill="#E0E0E0" stroke="white" stroke-width="0.982595" stroke-miterlimit="10"/>
<path d="M479.549 28.8451C481.016 25.6148 484.978 25.0274 482.043 20.7693C481.456 21.2098 480.723 21.6503 479.402 22.0908C474.12 23.5591 462.528 18.42 455.926 19.7414C449.323 21.0629 435.971 21.0629 432.889 24.2933C429.808 27.5236 421.885 28.5514 425.406 31.488C428.928 34.4247 425.406 35.893 427.901 39.417C430.395 42.941 431.716 44.4093 435.237 43.6751C438.758 42.941 441.4 44.703 437.731 48.6675C437.731 48.8143 437.585 48.8143 437.585 48.8143C443.454 48.2269 449.91 47.9333 450.937 48.6675C452.404 49.8421 461.208 56.7432 463.409 56.0091C464.729 55.5686 470.745 56.1559 475.147 56.7432C474.56 55.4218 474.707 54.1003 475.587 53.3661C477.201 52.0446 480.869 52.0446 478.815 49.2548C476.908 46.465 476.321 46.0245 476.027 42.6473C475.734 39.417 474.853 37.655 475.147 35.4525C475.734 32.9564 477.935 32.3691 479.549 28.8451ZM414.695 37.655C408.092 39.417 407.212 48.6674 409.706 48.5206C412.934 48.3738 420.564 42.06 422.472 40.1512C424.673 38.0955 421.298 35.893 414.695 37.655ZM420.271 32.369C421.738 29.5792 409.706 30.9007 412.348 33.2501C414.402 35.1589 418.804 35.1589 420.271 32.369Z" fill="#E0E0E0" stroke="white" stroke-width="0.982595" stroke-miterlimit="10"/>
<path d="M321.525 368.762C314.042 370.377 310.96 370.965 306.558 368.762C302.157 366.56 295.114 370.818 296.141 373.755C296.874 375.81 299.809 378.306 308.906 380.656C318.003 383.005 319.177 389.319 322.992 389.466C326.807 389.612 327.247 385.942 326.22 381.096C325.34 376.104 330.769 370.524 331.355 369.496C331.942 368.615 329.008 367.147 321.525 368.762ZM250.655 327.209C246.694 330.733 243.319 326.621 241.705 329.411C239.651 332.935 247.867 338.221 246.253 345.269C244.639 352.464 247.134 361.421 251.389 357.162C255.644 352.904 257.551 354.96 260.046 351.876C262.393 348.793 260.339 337.193 262.1 331.76C263.714 326.328 254.764 323.831 250.655 327.209ZM340.306 321.482C335.611 318.545 338.692 313.847 331.209 314.141C323.726 314.581 314.775 305.184 311.987 294.318C309.2 283.599 297.608 283.012 294.674 276.551C291.739 270.091 297.461 269.357 294.82 264.071C293.353 261.134 296.581 258.491 300.249 257.023C299.956 251.149 300.396 244.689 300.836 240.577C297.902 240.284 295.407 239.843 294.527 239.403C293.206 238.522 292.913 234.117 292.032 234.117C291.152 234.117 283.522 234.117 282.202 235.438C280.881 236.76 276.773 239.256 274.572 237.934C274.132 237.641 273.545 237.347 273.105 237.053L270.757 239.256C270.757 239.256 270.317 242.193 268.849 242.193C267.382 242.193 265.181 241.165 265.181 243.661C265.181 246.157 261.22 245.423 259.312 245.129C257.551 244.836 254.91 245.423 254.91 247.625C254.91 249.828 254.47 254.527 251.682 252.03C248.748 249.387 245.813 242.927 244.786 243.661C243.759 244.395 241.118 252.471 238.624 252.471C237.01 252.471 231.874 252.911 228.059 253.205C227.032 256.289 228.059 258.197 229.526 259.078C230.847 259.959 228.646 263.19 227.032 264.071C225.418 264.952 222.63 264.071 224.538 267.154C226.445 270.238 229.967 270.384 228.059 273.468C226.152 276.551 228.059 279.194 230.847 279.488C233.635 279.782 237.45 279.194 236.569 281.397C236.129 282.718 235.396 284.187 235.249 285.655C237.45 285.068 239.357 284.921 241.265 283.893C245.08 281.837 243.466 278.46 249.922 276.551C256.378 274.789 264.741 280.075 267.235 283.893C269.73 287.711 270.463 288.151 271.05 291.235C271.637 294.318 273.985 300.632 282.789 306.212C291.592 311.938 295.114 318.252 299.662 320.601C304.211 322.95 308.759 322.51 311.547 325.74C314.335 328.971 318.003 330.879 322.405 332.935C326.807 334.991 326.954 339.689 331.209 340.277C335.464 340.864 332.676 344.535 335.17 347.618C337.665 350.702 338.398 357.309 335.757 360.98C332.969 364.651 334.437 370.818 336.344 370.818C338.105 370.818 342.067 364.21 342.507 360.54C343.094 356.869 346.762 357.016 349.696 353.198C352.631 349.38 345.295 348.499 343.974 343.507C342.653 338.515 349.403 334.11 355.859 338.221C362.315 342.186 364.809 344.975 365.25 338.808C365.25 332.641 345.001 324.419 340.306 321.482Z" fill="#E0E0E0" stroke="white" stroke-width="0.982595" stroke-miterlimit="10"/>
<path d="M370.237 291.234C367.743 294.612 365.248 299.017 365.542 300.485C365.688 301.072 365.395 302.541 365.102 304.303C368.33 306.946 371.558 309.589 373.905 310.763C374.199 310.91 374.345 311.057 374.639 311.057C375.372 306.946 378.16 302.834 380.214 302.247C377.133 298.87 373.025 294.024 370.237 291.234Z" fill="#E0E0E0" stroke="white" stroke-width="0.982595" stroke-miterlimit="10"/>
<path d="M413.668 288.298C410.88 285.802 411.174 281.397 413.668 279.782C416.163 278.167 413.962 275.964 413.962 273.174C413.962 270.384 402.223 269.65 400.316 269.063C398.409 268.476 401.637 261.428 398.702 261.428C395.621 261.428 394.594 259.225 394.594 257.023C394.594 254.82 389.898 251.296 390.192 249.828C390.192 249.681 390.338 249.387 390.485 249.241C388.724 248.947 387.551 248.8 386.964 248.653C384.91 248.213 381.682 247.038 381.682 247.038C381.682 247.038 374.052 249.534 368.77 251.149C369.063 254.38 369.943 257.904 371.998 258.638C375.959 260.106 374.492 264.071 375.959 267.448C377.426 270.825 376.986 286.683 374.932 286.683C374.052 286.683 372.144 288.739 370.384 291.235C373.025 293.878 377.28 298.87 380.068 302.394C380.214 302.394 380.361 302.247 380.508 302.247C383.002 302.247 391.952 308.855 391.952 308.855C391.952 308.855 404.718 306.212 413.228 304.89C413.375 303.569 413.668 302.1 413.521 301.072C413.228 299.457 415.135 296.08 417.63 296.08C419.978 296.227 416.456 290.794 413.668 288.298Z" fill="#E0E0E0" stroke="white" stroke-width="0.982595" stroke-miterlimit="10"/>
<path d="M246.091 80.9694H245.43V78.8255H246.12C246.328 78.8255 246.506 78.8684 246.654 78.9543C246.802 79.0394 246.916 79.1619 246.994 79.3217C247.073 79.4808 247.113 79.6713 247.113 79.8933C247.113 80.1166 247.073 80.3088 246.993 80.47C246.914 80.6305 246.798 80.7541 246.646 80.8406C246.494 80.9264 246.309 80.9694 246.091 80.9694ZM245.689 80.7391H246.074C246.252 80.7391 246.399 80.7049 246.515 80.6365C246.632 80.5681 246.718 80.4707 246.776 80.3444C246.833 80.2181 246.862 80.0677 246.862 79.8933C246.862 79.7202 246.833 79.5712 246.777 79.4463C246.72 79.3207 246.636 79.2243 246.523 79.1574C246.411 79.0897 246.271 79.0558 246.104 79.0558H245.689V80.7391ZM247.548 80.9694V78.8255H248.842V79.0558H247.808V79.7802H248.775V80.0105H247.808V80.7391H248.859V80.9694H247.548ZM251.01 78.8255V80.9694H250.759L249.591 79.2861H249.57V80.9694H249.31V78.8255H249.561L250.734 80.513H250.755V78.8255H251.01ZM251.529 78.8255H251.839L252.568 80.6051H252.593L253.322 78.8255H253.631V80.9694H253.389V79.3405H253.368L252.698 80.9694H252.463L251.793 79.3405H251.772V80.9694H251.529V78.8255ZM254.24 80.9694H253.968L254.755 78.8255H255.023L255.81 80.9694H255.538L254.897 79.1647H254.881L254.24 80.9694ZM254.34 80.1319H255.437V80.3622H254.34V80.1319ZM256.144 80.9694V78.8255H256.868C257.036 78.8255 257.173 78.8541 257.281 78.9114C257.388 78.9679 257.468 79.0457 257.52 79.1448C257.571 79.2439 257.597 79.3566 257.597 79.4829C257.597 79.6092 257.571 79.7212 257.52 79.8189C257.468 79.9166 257.389 79.9934 257.282 80.0492C257.175 80.1044 257.039 80.1319 256.873 80.1319H256.286V79.8974H256.864C256.979 79.8974 257.071 79.8807 257.141 79.8472C257.211 79.8137 257.262 79.7662 257.293 79.7048C257.326 79.6427 257.342 79.5687 257.342 79.4829C257.342 79.3971 257.326 79.322 257.293 79.2578C257.261 79.1936 257.21 79.1441 257.14 79.1092C257.069 79.0736 256.976 79.0558 256.86 79.0558H256.404V80.9694H256.144ZM257.153 80.0063L257.681 80.9694H257.379L256.86 80.0063H257.153ZM258.03 80.9694V78.8255H258.289V79.8891H258.314L259.277 78.8255H259.617L258.716 79.7928L259.617 80.9694H259.302L258.557 79.9728L258.289 80.2743V80.9694H258.03Z" fill="white"/>
<path d="M270.903 236.319C270.903 236.319 271.05 232.795 267.235 232.061C263.42 231.327 263.567 230.005 263.274 228.831C263.127 228.243 261.953 226.628 261.953 226.628C261.953 226.628 259.899 226.775 260.339 230.446C260.486 231.62 260.633 232.355 260.633 232.942C260.633 233.823 261.073 234.557 261.66 235.144C262.687 236.025 264.007 237.053 265.475 236.906C267.969 236.172 268.996 236.025 270.903 236.319Z" fill="#E0E0E0" stroke="white" stroke-width="0.982595" stroke-miterlimit="10"/>
<path d="M141.929 302.981C141.929 302.981 140.755 307.533 147.652 307.239C147.652 307.239 152.2 304.89 156.309 306.358C160.417 307.827 158.95 304.156 158.95 304.156C158.95 304.156 154.841 303.422 153.227 301.807C151.613 300.338 150.439 299.164 148.825 299.31C147.211 299.457 147.798 300.926 147.798 300.926C147.798 300.926 147.945 302.981 141.929 302.981Z" fill="#E0E0E0" stroke="white" stroke-width="0.982595" stroke-miterlimit="10"/>
<path d="M233.193 286.242C233.193 286.242 230.112 285.802 226.884 287.27C225.416 288.004 222.042 287.27 221.602 290.207C219.988 299.164 226.15 291.822 226.15 291.822L231.872 286.976L233.193 286.242Z" fill="#E0E0E0" stroke="white" stroke-width="0.982595" stroke-miterlimit="10"/>
<path d="M532.223 122.23C530.022 121.643 528.702 116.798 525.033 115.329C521.512 114.008 522.246 109.603 519.311 107.694C516.23 105.785 518.137 101.967 517.99 98.884C517.697 95.8005 518.577 91.2487 516.963 90.3677C515.349 89.4867 508.453 85.6691 505.372 87.1374C502.291 88.4589 500.09 89.6335 498.769 87.1374C497.449 84.6412 495.541 83.3197 492.46 84.0539C489.378 84.9349 487.471 83.4666 485.857 82.1451C485.564 81.9982 485.417 81.5578 485.27 81.2641C484.096 81.5578 482.482 81.9982 481.455 82.8792C479.548 84.3476 479.254 87.2842 476.76 87.2842C474.266 87.2842 471.331 86.2564 468.396 88.4589C465.462 90.6614 464.728 93.1575 465.168 95.0663C465.462 96.8283 465.902 99.765 463.701 99.765C461.5 99.765 461.94 102.261 459.74 102.995C457.539 103.729 453.87 106.96 453.577 108.869C453.284 110.777 453.284 114.742 451.816 114.742C450.349 114.742 445.214 115.476 443.746 117.238C442.279 119 440.518 120.909 437.584 120.175C436.116 119.734 432.008 119.587 428.487 119.587C428.487 119.881 428.487 120.322 428.34 120.615C427.019 124.433 428.046 127.957 430.247 130.012C432.448 131.921 433.329 139.557 430.834 140.731C428.34 141.759 423.645 145.136 423.645 147.045C423.645 148.954 428.633 150.569 427.753 153.359C427.313 154.974 427.313 157.764 427.606 160.113C429.954 160.26 432.301 160.7 434.209 158.645C436.41 156.442 437.437 153.946 442.279 153.946C446.974 153.946 461.354 153.946 463.554 156.442C465.755 158.938 471.624 156.736 474.852 158.204C478.08 159.673 482.923 161.141 483.216 159.232C483.656 157.47 487.911 161.728 491.286 159.966C494.514 158.204 497.449 163.637 499.356 162.462C501.117 161.288 508.893 161.435 510.654 163.197C512.561 164.959 512.855 161.288 512.855 159.232C512.855 157.03 520.191 151.156 520.191 151.156C520.191 151.156 525.18 150.863 528.115 149.541C527.381 148.66 526.941 147.045 526.207 144.402C524.887 138.382 522.686 134.858 524.3 132.802C525.914 130.893 530.609 135.298 533.103 134.124C535.598 133.096 540 130.893 539.413 128.397C538.532 126.048 534.424 122.671 532.223 122.23Z" fill="#E0E0E0" stroke="white" stroke-width="0.982595" stroke-miterlimit="10"/>
<path d="M245.517 408.701C244.637 402.534 232.018 410.609 234.66 412.371C240.235 415.895 246.545 414.868 245.517 408.701Z" fill="#E0E0E0" stroke="white" stroke-width="0.982595" stroke-miterlimit="10"/>
</g>
<defs>
<clipPath id="clip0_585_1755">
<rect width="632" height="415.789" fill="white"/>
</clipPath>
</defs>
</svg>
