<svg width="43" height="41" viewBox="0 0 43 41" fill="none" xmlns="http://www.w3.org/2000/svg">
<path d="M26.758 26.5999L12.4036 12.1999C11.553 11.3466 11.553 9.85327 12.4036 8.99994L19.7403 1.63994C20.5909 0.786606 22.0795 0.786606 22.9302 1.63994L37.2846 16.0399C38.1352 16.8933 38.1352 18.3866 37.2846 19.2399L29.9479 26.5999C29.0973 27.4533 27.6087 27.4533 26.758 26.5999Z" stroke="white" stroke-width="1.5" stroke-miterlimit="10" stroke-linecap="round" stroke-linejoin="round"/>
<path d="M26.758 26.5999L12.4036 12.1999C11.553 11.3466 11.553 9.85327 12.4036 8.99994L19.7403 1.63994C20.5909 0.786606 22.0795 0.786606 22.9302 1.63994L37.2846 16.0399C38.1352 16.8933 38.1352 18.3866 37.2846 19.2399L29.9479 26.5999C29.0973 27.4533 27.6087 27.4533 26.758 26.5999Z" stroke="url(#paint0_linear_941_1177)" stroke-width="1.5" stroke-miterlimit="10" stroke-linecap="round" stroke-linejoin="round"/>
<path d="M13.8926 13.6933L24.4192 3.13327" stroke="white" stroke-width="1.5" stroke-miterlimit="10" stroke-linecap="round" stroke-linejoin="round"/>
<path d="M13.8926 13.6933L24.4192 3.13327" stroke="url(#paint1_linear_941_1177)" stroke-width="1.5" stroke-miterlimit="10" stroke-linecap="round" stroke-linejoin="round"/>
<path d="M25.2695 25.1066L35.7961 14.4399" stroke="white" stroke-width="1.5" stroke-miterlimit="10" stroke-linecap="round" stroke-linejoin="round"/>
<path d="M25.2695 25.1066L35.7961 14.4399" stroke="url(#paint2_linear_941_1177)" stroke-width="1.5" stroke-miterlimit="10" stroke-linecap="round" stroke-linejoin="round"/>
<path d="M18.5709 23.7199L4.85443 37.4799C4.11013 38.2266 2.94051 38.2266 2.1962 37.4799L1.55823 36.8399C0.813924 36.0933 0.813924 34.9199 1.55823 34.1733L15.2747 20.4133" stroke="white" stroke-width="1.5" stroke-miterlimit="10" stroke-linecap="round" stroke-linejoin="round"/>
<path d="M18.5709 23.7199L4.85443 37.4799C4.11013 38.2266 2.94051 38.2266 2.1962 37.4799L1.55823 36.8399C0.813924 36.0933 0.813924 34.9199 1.55823 34.1733L15.2747 20.4133" stroke="url(#paint3_linear_941_1177)" stroke-width="1.5" stroke-miterlimit="10" stroke-linecap="round" stroke-linejoin="round"/>
<path d="M22.0798 21.9066L20.5912 23.3999C19.9532 24.0399 18.7836 24.0399 18.1456 23.3999L15.5937 20.8399C14.9557 20.1999 14.9557 19.0266 15.5937 18.3866L17.0823 16.8933" stroke="white" stroke-width="1.5" stroke-miterlimit="10" stroke-linecap="round" stroke-linejoin="round"/>
<path d="M22.0798 21.9066L20.5912 23.3999C19.9532 24.0399 18.7836 24.0399 18.1456 23.3999L15.5937 20.8399C14.9557 20.1999 14.9557 19.0266 15.5937 18.3866L17.0823 16.8933" stroke="url(#paint4_linear_941_1177)" stroke-width="1.5" stroke-miterlimit="10" stroke-linecap="round" stroke-linejoin="round"/>
<path d="M39.0926 35.1333H22.3989C21.123 35.1333 20.166 36.1999 20.166 37.3733V39.3999H41.4318V37.3733C41.4318 36.0933 40.3685 35.1333 39.0926 35.1333Z" stroke="white" stroke-width="1.5" stroke-miterlimit="10" stroke-linecap="round" stroke-linejoin="round"/>
<path d="M39.0926 35.1333H22.3989C21.123 35.1333 20.166 36.1999 20.166 37.3733V39.3999H41.4318V37.3733C41.4318 36.0933 40.3685 35.1333 39.0926 35.1333Z" stroke="url(#paint5_linear_941_1177)" stroke-width="1.5" stroke-miterlimit="10" stroke-linecap="round" stroke-linejoin="round"/>
<defs>
<linearGradient id="paint0_linear_941_1177" x1="24.8441" y1="0.999939" x2="24.8441" y2="27.2399" gradientUnits="userSpaceOnUse">
<stop stop-color="white"/>
<stop offset="1" stop-color="white" stop-opacity="0"/>
</linearGradient>
<linearGradient id="paint1_linear_941_1177" x1="19.1559" y1="3.13327" x2="19.1559" y2="13.6933" gradientUnits="userSpaceOnUse">
<stop stop-color="white"/>
<stop offset="1" stop-color="white" stop-opacity="0"/>
</linearGradient>
<linearGradient id="paint2_linear_941_1177" x1="30.5328" y1="14.4399" x2="30.5328" y2="25.1066" gradientUnits="userSpaceOnUse">
<stop stop-color="white"/>
<stop offset="1" stop-color="white" stop-opacity="0"/>
</linearGradient>
<linearGradient id="paint3_linear_941_1177" x1="9.78544" y1="20.4133" x2="9.78544" y2="38.0399" gradientUnits="userSpaceOnUse">
<stop stop-color="white"/>
<stop offset="1" stop-color="white" stop-opacity="0"/>
</linearGradient>
<linearGradient id="paint4_linear_941_1177" x1="18.5975" y1="16.8933" x2="18.5975" y2="23.8799" gradientUnits="userSpaceOnUse">
<stop stop-color="white"/>
<stop offset="1" stop-color="white" stop-opacity="0"/>
</linearGradient>
<linearGradient id="paint5_linear_941_1177" x1="30.7989" y1="35.1333" x2="30.7989" y2="39.3999" gradientUnits="userSpaceOnUse">
<stop stop-color="white"/>
<stop offset="1" stop-color="white" stop-opacity="0"/>
</linearGradient>
</defs>
</svg>
