<svg width="45" height="45" viewBox="0 0 45 45" fill="none" xmlns="http://www.w3.org/2000/svg">
<path d="M34.7508 32.2592C35.3887 32.2592 35.9204 31.9381 36.2394 31.4028V31.2958C36.8773 30.3324 36.6647 29.0479 35.7077 28.5127L27.4141 21.1268" stroke="white" stroke-width="1.5" stroke-miterlimit="10" stroke-linecap="round" stroke-linejoin="round"/>
<path d="M34.7508 32.2592C35.3887 32.2592 35.9204 31.9381 36.2394 31.4028V31.2958C36.8773 30.3324 36.6647 29.0479 35.7077 28.5127L27.4141 21.1268" stroke="url(#paint0_linear_585_1561)" stroke-width="1.5" stroke-miterlimit="10" stroke-linecap="round" stroke-linejoin="round"/>
<path d="M24.0111 25.1944L33.1554 31.4028C34.1124 32.0451 34.325 33.3296 33.6871 34.1859V34.293C33.0491 35.2564 31.7731 35.4704 30.9225 34.8282L21.6719 28.6197" stroke="white" stroke-width="1.5" stroke-miterlimit="10" stroke-linecap="round" stroke-linejoin="round"/>
<path d="M24.0111 25.1944L33.1554 31.4028C34.1124 32.0451 34.325 33.3296 33.6871 34.1859V34.293C33.0491 35.2564 31.7731 35.4704 30.9225 34.8282L21.6719 28.6197" stroke="url(#paint1_linear_585_1561)" stroke-width="1.5" stroke-miterlimit="10" stroke-linecap="round" stroke-linejoin="round"/>
<path d="M21.565 28.6197L30.0713 34.4C31.0283 35.0423 31.241 36.3268 30.603 37.1831V37.2902C29.965 38.2535 28.6891 38.4676 27.8384 37.8254L20.2891 32.6873" stroke="white" stroke-width="1.5" stroke-miterlimit="10" stroke-linecap="round" stroke-linejoin="round"/>
<path d="M21.565 28.6197L30.0713 34.4C31.0283 35.0423 31.241 36.3268 30.603 37.1831V37.2902C29.965 38.2535 28.6891 38.4676 27.8384 37.8254L20.2891 32.6873" stroke="url(#paint2_linear_585_1561)" stroke-width="1.5" stroke-miterlimit="10" stroke-linecap="round" stroke-linejoin="round"/>
<path d="M21.3532 38.4676L22.9482 39.5381C23.9051 40.1803 25.1811 39.9662 25.7127 39.0028V38.8958C26.3507 37.9324 26.138 36.6479 25.1811 36.1127L20.1836 32.6873" stroke="white" stroke-width="1.5" stroke-miterlimit="10" stroke-linecap="round" stroke-linejoin="round"/>
<path d="M21.3532 38.4676L22.9482 39.5381C23.9051 40.1803 25.1811 39.9662 25.7127 39.0028V38.8958C26.3507 37.9324 26.138 36.6479 25.1811 36.1127L20.1836 32.6873" stroke="url(#paint3_linear_585_1561)" stroke-width="1.5" stroke-miterlimit="10" stroke-linecap="round" stroke-linejoin="round"/>
<path d="M28.7947 8.81693C27.0935 9.13805 25.3922 9.99439 24.0099 11.1719L22.6277 12.3493L14.334 19.4141C15.8226 21.1268 18.3745 21.3409 20.1821 19.8423L22.9466 17.5944L25.7112 19.9493C28.0504 21.8761 31.5593 21.555 33.5796 19.2" stroke="white" stroke-width="1.5" stroke-miterlimit="10" stroke-linecap="round" stroke-linejoin="round"/>
<path d="M28.7947 8.81693C27.0935 9.13805 25.3922 9.99439 24.0099 11.1719L22.6277 12.3493L14.334 19.4141C15.8226 21.1268 18.3745 21.3409 20.1821 19.8423L22.9466 17.5944L25.7112 19.9493C28.0504 21.8761 31.5593 21.555 33.5796 19.2" stroke="url(#paint4_linear_585_1561)" stroke-width="1.5" stroke-miterlimit="10" stroke-linecap="round" stroke-linejoin="round"/>
<path d="M10.2941 32.1521L13.0587 28.2986C13.6966 27.3352 13.484 26.0507 12.6333 25.4085C11.6764 24.7662 10.4004 24.9803 9.76246 25.8366L6.9979 29.6902C6.35993 30.6535 6.57258 31.938 7.42322 32.5803C8.27385 33.2226 9.5498 33.1155 10.2941 32.1521Z" stroke="white" stroke-width="1.5" stroke-miterlimit="10" stroke-linecap="round" stroke-linejoin="round"/>
<path d="M10.2941 32.1521L13.0587 28.2986C13.6966 27.3352 13.484 26.0507 12.6333 25.4085C11.6764 24.7662 10.4004 24.9803 9.76246 25.8366L6.9979 29.6902C6.35993 30.6535 6.57258 31.938 7.42322 32.5803C8.27385 33.2226 9.5498 33.1155 10.2941 32.1521Z" stroke="url(#paint5_linear_585_1561)" stroke-width="1.5" stroke-miterlimit="10" stroke-linecap="round" stroke-linejoin="round"/>
<path d="M13.5895 34.6141L17.5237 29.1549C18.1616 28.1916 17.949 26.9071 17.0983 26.2648C16.1414 25.6226 14.8654 25.8366 14.2275 26.693L10.2933 32.1521C9.54897 33.1155 9.76163 34.4 10.7186 35.0423C11.6756 35.6845 12.9515 35.4704 13.5895 34.6141Z" stroke="white" stroke-width="1.5" stroke-miterlimit="10" stroke-linecap="round" stroke-linejoin="round"/>
<path d="M13.5895 34.6141L17.5237 29.1549C18.1616 28.1916 17.949 26.9071 17.0983 26.2648C16.1414 25.6226 14.8654 25.8366 14.2275 26.693L10.2933 32.1521C9.54897 33.1155 9.76163 34.4 10.7186 35.0423C11.6756 35.6845 12.9515 35.4704 13.5895 34.6141Z" stroke="url(#paint6_linear_585_1561)" stroke-width="1.5" stroke-miterlimit="10" stroke-linecap="round" stroke-linejoin="round"/>
<path d="M16.9933 37.0761L19.7579 33.2226C20.3959 32.2592 20.1832 30.9747 19.3326 30.3324C18.3756 29.6902 17.0996 29.9042 16.4617 30.7606L13.6971 34.6141C13.0591 35.5775 13.2718 36.862 14.1224 37.5043C14.9731 38.1465 16.249 37.9324 16.9933 37.0761Z" stroke="white" stroke-width="1.5" stroke-miterlimit="10" stroke-linecap="round" stroke-linejoin="round"/>
<path d="M16.9933 37.0761L19.7579 33.2226C20.3959 32.2592 20.1832 30.9747 19.3326 30.3324C18.3756 29.6902 17.0996 29.9042 16.4617 30.7606L13.6971 34.6141C13.0591 35.5775 13.2718 36.862 14.1224 37.5043C14.9731 38.1465 16.249 37.9324 16.9933 37.0761Z" stroke="url(#paint7_linear_585_1561)" stroke-width="1.5" stroke-miterlimit="10" stroke-linecap="round" stroke-linejoin="round"/>
<path d="M20.2882 39.5381L21.9895 37.1831C22.6275 36.2197 22.4148 34.9352 21.5642 34.293C20.6072 33.6507 19.3313 33.8648 18.6933 34.7212L16.992 37.0761C16.3541 38.0395 16.5667 39.324 17.4174 39.9662C18.3743 40.6085 19.6503 40.3944 20.2882 39.5381Z" stroke="white" stroke-width="1.5" stroke-miterlimit="10" stroke-linecap="round" stroke-linejoin="round"/>
<path d="M20.2882 39.5381L21.9895 37.1831C22.6275 36.2197 22.4148 34.9352 21.5642 34.293C20.6072 33.6507 19.3313 33.8648 18.6933 34.7212L16.992 37.0761C16.3541 38.0395 16.5667 39.324 17.4174 39.9662C18.3743 40.6085 19.6503 40.3944 20.2882 39.5381Z" stroke="url(#paint8_linear_585_1561)" stroke-width="1.5" stroke-miterlimit="10" stroke-linecap="round" stroke-linejoin="round"/>
<path d="M36.1316 28.1916C39.6405 23.5887 42.4051 18.7718 42.4051 15.3465C42.4051 9.031 37.4076 4.00002 31.3468 4.00002C27.519 4.00002 24.2228 6.35494 22.2025 9.35213C20.1823 6.35494 16.8861 4.00002 13.0582 4.00002C6.89114 4.00002 2 9.031 2 15.3465C2 18.6648 4.5519 23.2676 7.95443 27.7634" stroke="white" stroke-width="1.5" stroke-miterlimit="10" stroke-linecap="round" stroke-linejoin="round"/>
<path d="M36.1316 28.1916C39.6405 23.5887 42.4051 18.7718 42.4051 15.3465C42.4051 9.031 37.4076 4.00002 31.3468 4.00002C27.519 4.00002 24.2228 6.35494 22.2025 9.35213C20.1823 6.35494 16.8861 4.00002 13.0582 4.00002C6.89114 4.00002 2 9.031 2 15.3465C2 18.6648 4.5519 23.2676 7.95443 27.7634" stroke="url(#paint9_linear_585_1561)" stroke-width="1.5" stroke-miterlimit="10" stroke-linecap="round" stroke-linejoin="round"/>
<defs>
<linearGradient id="paint0_linear_585_1561" x1="32.0091" y1="21.1268" x2="32.0091" y2="32.2592" gradientUnits="userSpaceOnUse">
<stop stop-color="white"/>
<stop offset="1" stop-color="white" stop-opacity="0"/>
</linearGradient>
<linearGradient id="paint1_linear_585_1561" x1="27.8618" y1="25.1944" x2="27.8618" y2="35.1953" gradientUnits="userSpaceOnUse">
<stop stop-color="white"/>
<stop offset="1" stop-color="white" stop-opacity="0"/>
</linearGradient>
<linearGradient id="paint2_linear_585_1561" x1="25.6284" y1="28.6197" x2="25.6284" y2="38.1925" gradientUnits="userSpaceOnUse">
<stop stop-color="white"/>
<stop offset="1" stop-color="white" stop-opacity="0"/>
</linearGradient>
<linearGradient id="paint3_linear_585_1561" x1="23.1305" y1="32.6873" x2="23.1305" y2="39.9052" gradientUnits="userSpaceOnUse">
<stop stop-color="white"/>
<stop offset="1" stop-color="white" stop-opacity="0"/>
</linearGradient>
<linearGradient id="paint4_linear_585_1561" x1="23.9568" y1="8.81693" x2="23.9568" y2="21.2053" gradientUnits="userSpaceOnUse">
<stop stop-color="white"/>
<stop offset="1" stop-color="white" stop-opacity="0"/>
</linearGradient>
<linearGradient id="paint5_linear_585_1561" x1="10.0283" y1="25.035" x2="10.0283" y2="32.9851" gradientUnits="userSpaceOnUse">
<stop stop-color="white"/>
<stop offset="1" stop-color="white" stop-opacity="0"/>
</linearGradient>
<linearGradient id="paint6_linear_585_1561" x1="13.8702" y1="25.8914" x2="13.8702" y2="35.4157" gradientUnits="userSpaceOnUse">
<stop stop-color="white"/>
<stop offset="1" stop-color="white" stop-opacity="0"/>
</linearGradient>
<linearGradient id="paint7_linear_585_1561" x1="16.7275" y1="29.959" x2="16.7275" y2="37.8777" gradientUnits="userSpaceOnUse">
<stop stop-color="white"/>
<stop offset="1" stop-color="white" stop-opacity="0"/>
</linearGradient>
<linearGradient id="paint8_linear_585_1561" x1="19.4908" y1="33.9195" x2="19.4908" y2="40.3397" gradientUnits="userSpaceOnUse">
<stop stop-color="white"/>
<stop offset="1" stop-color="white" stop-opacity="0"/>
</linearGradient>
<linearGradient id="paint9_linear_585_1561" x1="22.2025" y1="4.00002" x2="22.2025" y2="28.1916" gradientUnits="userSpaceOnUse">
<stop stop-color="white"/>
<stop offset="1" stop-color="white" stop-opacity="0"/>
</linearGradient>
</defs>
</svg>
