<svg width="42" height="40" viewBox="0 0 42 40" fill="none" xmlns="http://www.w3.org/2000/svg">
<path d="M17.6083 34.28V28.04L10.2387 20.656C9.40828 19.824 8.16271 19.824 7.33233 20.656L7.12474 20.864C6.29436 21.696 6.29436 22.944 7.12474 23.776L11.8994 28.56" stroke="white" stroke-width="1.5" stroke-miterlimit="10" stroke-linecap="round" stroke-linejoin="round"/>
<path d="M17.6083 34.28V28.04L10.2387 20.656C9.40828 19.824 8.16271 19.824 7.33233 20.656L7.12474 20.864C6.29436 21.696 6.29436 22.944 7.12474 23.776L11.8994 28.56" stroke="url(#paint0_linear_941_1362)" stroke-width="1.5" stroke-miterlimit="10" stroke-linecap="round" stroke-linejoin="round"/>
<path d="M5.1519 18.68V9.31997C5.1519 8.17597 4.21772 7.23997 3.07595 7.23997C1.93418 7.23997 1 8.17597 1 9.31997V20.968C1 23.464 1.93418 25.856 3.69874 27.624L9.3038 33.24V34.28" stroke="white" stroke-width="1.5" stroke-miterlimit="10" stroke-linecap="round" stroke-linejoin="round"/>
<path d="M5.1519 18.68V9.31997C5.1519 8.17597 4.21772 7.23997 3.07595 7.23997C1.93418 7.23997 1 8.17597 1 9.31997V20.968C1 23.464 1.93418 25.856 3.69874 27.624L9.3038 33.24V34.28" stroke="url(#paint1_linear_941_1362)" stroke-width="1.5" stroke-miterlimit="10" stroke-linecap="round" stroke-linejoin="round"/>
<path d="M23.8359 34.28V28.04L31.2056 20.656C32.0359 19.824 33.2815 19.824 34.1119 20.656L34.3195 20.864C35.1499 21.696 35.1499 22.944 34.3195 23.776L29.5448 28.56" stroke="white" stroke-width="1.5" stroke-miterlimit="10" stroke-linecap="round" stroke-linejoin="round"/>
<path d="M23.8359 34.28V28.04L31.2056 20.656C32.0359 19.824 33.2815 19.824 34.1119 20.656L34.3195 20.864C35.1499 21.696 35.1499 22.944 34.3195 23.776L29.5448 28.56" stroke="url(#paint2_linear_941_1362)" stroke-width="1.5" stroke-miterlimit="10" stroke-linecap="round" stroke-linejoin="round"/>
<path d="M36.2906 18.68V9.31997C36.2906 8.17597 37.2247 7.23997 38.3665 7.23997C39.5083 7.23997 40.4425 8.17597 40.4425 9.31997V20.968C40.4425 23.464 39.5083 25.856 37.7437 27.624L32.1387 33.24V34.28" stroke="white" stroke-width="1.5" stroke-miterlimit="10" stroke-linecap="round" stroke-linejoin="round"/>
<path d="M36.2906 18.68V9.31997C36.2906 8.17597 37.2247 7.23997 38.3665 7.23997C39.5083 7.23997 40.4425 8.17597 40.4425 9.31997V20.968C40.4425 23.464 39.5083 25.856 37.7437 27.624L32.1387 33.24V34.28" stroke="url(#paint3_linear_941_1362)" stroke-width="1.5" stroke-miterlimit="10" stroke-linecap="round" stroke-linejoin="round"/>
<path d="M8.26562 38.44V36.36H18.6454V38.44" stroke="white" stroke-width="1.5" stroke-miterlimit="10" stroke-linecap="round" stroke-linejoin="round"/>
<path d="M8.26562 38.44V36.36H18.6454V38.44" stroke="url(#paint4_linear_941_1362)" stroke-width="1.5" stroke-miterlimit="10" stroke-linecap="round" stroke-linejoin="round"/>
<path d="M22.7969 38.44V36.36H33.1766V38.44" stroke="white" stroke-width="1.5" stroke-miterlimit="10" stroke-linecap="round" stroke-linejoin="round"/>
<path d="M22.7969 38.44V36.36H33.1766V38.44" stroke="url(#paint5_linear_941_1362)" stroke-width="1.5" stroke-miterlimit="10" stroke-linecap="round" stroke-linejoin="round"/>
<path d="M10.3418 9.31997L20.7215 0.999969L31.1013 9.31997" stroke="white" stroke-width="1.5" stroke-miterlimit="10" stroke-linecap="round" stroke-linejoin="round"/>
<path d="M10.3418 9.31997L20.7215 0.999969L31.1013 9.31997" stroke="url(#paint6_linear_941_1362)" stroke-width="1.5" stroke-miterlimit="10" stroke-linecap="round" stroke-linejoin="round"/>
<path d="M13.4551 7.23997V17.64H18.645V10.36H22.7968V17.64H27.9867V7.23997" stroke="white" stroke-width="1.5" stroke-miterlimit="10" stroke-linecap="round" stroke-linejoin="round"/>
<path d="M13.4551 7.23997V17.64H18.645V10.36H22.7968V17.64H27.9867V7.23997" stroke="url(#paint7_linear_941_1362)" stroke-width="1.5" stroke-miterlimit="10" stroke-linecap="round" stroke-linejoin="round"/>
<defs>
<linearGradient id="paint0_linear_941_1362" x1="12.0551" y1="20.032" x2="12.0551" y2="34.28" gradientUnits="userSpaceOnUse">
<stop stop-color="white"/>
<stop offset="1" stop-color="white" stop-opacity="0"/>
</linearGradient>
<linearGradient id="paint1_linear_941_1362" x1="5.1519" y1="7.23997" x2="5.1519" y2="34.28" gradientUnits="userSpaceOnUse">
<stop stop-color="white"/>
<stop offset="1" stop-color="white" stop-opacity="0"/>
</linearGradient>
<linearGradient id="paint2_linear_941_1362" x1="29.3891" y1="20.032" x2="29.3891" y2="34.28" gradientUnits="userSpaceOnUse">
<stop stop-color="white"/>
<stop offset="1" stop-color="white" stop-opacity="0"/>
</linearGradient>
<linearGradient id="paint3_linear_941_1362" x1="36.2906" y1="7.23997" x2="36.2906" y2="34.28" gradientUnits="userSpaceOnUse">
<stop stop-color="white"/>
<stop offset="1" stop-color="white" stop-opacity="0"/>
</linearGradient>
<linearGradient id="paint4_linear_941_1362" x1="13.4555" y1="36.36" x2="13.4555" y2="38.44" gradientUnits="userSpaceOnUse">
<stop stop-color="white"/>
<stop offset="1" stop-color="white" stop-opacity="0"/>
</linearGradient>
<linearGradient id="paint5_linear_941_1362" x1="27.9867" y1="36.36" x2="27.9867" y2="38.44" gradientUnits="userSpaceOnUse">
<stop stop-color="white"/>
<stop offset="1" stop-color="white" stop-opacity="0"/>
</linearGradient>
<linearGradient id="paint6_linear_941_1362" x1="20.7215" y1="0.999969" x2="20.7215" y2="9.31997" gradientUnits="userSpaceOnUse">
<stop stop-color="white"/>
<stop offset="1" stop-color="white" stop-opacity="0"/>
</linearGradient>
<linearGradient id="paint7_linear_941_1362" x1="20.7209" y1="7.23997" x2="20.7209" y2="17.64" gradientUnits="userSpaceOnUse">
<stop stop-color="white"/>
<stop offset="1" stop-color="white" stop-opacity="0"/>
</linearGradient>
</defs>
</svg>
